<svg width="40" height="42" viewBox="0 0 40 42" fill="none" xmlns="http://www.w3.org/2000/svg">
<path d="M26.987 0H7.52023C3.70775 0 0.610107 3.15197 0.610107 7.03131V16.928C0.610107 20.8147 3.70775 23.9594 7.52023 23.9594H26.9798C30.7995 23.9594 33.8899 20.8074 33.8899 16.928V7.03131C33.8971 3.15197 30.7995 0 26.987 0ZM22.308 12.4683L13.2028 16.884C12.9573 17.0015 12.683 16.8252 12.683 16.546V7.43541C12.683 7.15621 12.9718 6.97988 13.2101 7.10478L22.3152 11.7997C22.5896 11.9393 22.5824 12.336 22.308 12.4683Z" fill="#FF1313"/>
<path d="M26.5701 16.083L39.8849 29.3978H31.896L26.5701 34.7238V16.083Z" fill="white"/>
<line y1="-1.85408" x2="14.3405" y2="-1.85408" transform="matrix(0.37139 0.928477 -0.928476 0.371391 29.2332 28.0664)" stroke="white" stroke-width="3.70815"/>
</svg>
