<svg width="19" height="15" viewBox="0 0 19 15" fill="none" xmlns="http://www.w3.org/2000/svg">
<path opacity="0.3" d="M18.6018 2.01986C17.9268 2.30485 17.2109 2.49196 16.4779 2.57495C17.2403 2.13807 17.8267 1.44767 18.1027 0.623803C17.3769 1.03455 16.5827 1.32394 15.7545 1.47947C15.0556 0.767689 14.0782 0.364524 13.0556 0.366216C11.0143 0.366216 9.35741 1.94464 9.35741 3.89173C9.35741 4.16839 9.39007 4.43804 9.45401 4.69552C6.38021 4.54825 3.65599 3.14517 1.83172 1.01166C1.51319 1.53177 1.3315 2.13807 1.3315 2.7844C1.3315 4.00709 1.98409 5.08645 2.97615 5.71885C2.38879 5.70168 1.81431 5.55044 1.30091 5.27781V5.32277C1.30091 7.03058 2.57574 8.4557 4.26661 8.78029C3.72204 8.9209 3.15106 8.94152 2.59689 8.8406C3.06768 10.2416 4.43381 11.2608 6.05132 11.2904C4.78593 12.2345 3.19165 12.7993 1.45868 12.7993C1.16401 12.7989 0.869595 12.7825 0.576904 12.7499C2.21327 13.75 4.15748 14.3345 6.24567 14.3345C13.0476 14.3345 16.7665 8.96078 16.7665 4.30075C16.7665 4.14833 16.7665 3.9959 16.755 3.84457C17.4786 3.34531 18.1036 2.72749 18.6007 2.01986H18.6018Z" fill="white"/>
</svg>
