<svg width="19" height="15" viewBox="0 0 19 15" fill="none" xmlns="http://www.w3.org/2000/svg">
<path opacity="0.3" d="M18.3942 2.34426C17.7192 2.63021 17.0033 2.81794 16.2702 2.90121C17.0326 2.46287 17.6191 1.77014 17.8951 0.943515C17.1692 1.35564 16.375 1.64601 15.5469 1.80205C14.8479 1.08788 13.8705 0.683366 12.848 0.685064C10.8066 0.685064 9.14971 2.26878 9.14971 4.2224C9.14971 4.5 9.18237 4.77056 9.2463 5.0289C6.17248 4.88113 3.44825 3.47335 1.62397 1.33268C1.30543 1.85453 1.12374 2.46287 1.12374 3.11136C1.12374 4.33815 1.77634 5.42114 2.7684 6.05566C2.18103 6.03844 1.60655 5.88668 1.09315 5.61314V5.65825C1.09315 7.37179 2.36799 8.80169 4.05887 9.12737C3.5143 9.26845 2.94331 9.28914 2.38914 9.18789C2.85993 10.5936 4.22608 11.6162 5.8436 11.6459C4.57819 12.5932 2.9839 13.1598 1.25092 13.1598C0.956247 13.1595 0.661834 13.143 0.369141 13.1103C2.00552 14.1138 3.94974 14.7002 6.03794 14.7002C12.8399 14.7002 16.5588 9.30847 16.5588 4.6328C16.5588 4.47987 16.5588 4.32693 16.5473 4.17509C17.271 3.67416 17.8959 3.05426 18.393 2.34426H18.3942Z" fill="white"/>
</svg>
