<svg width="160" height="167" viewBox="0 0 160 167" fill="none" xmlns="http://www.w3.org/2000/svg">
<rect width="160" height="167" fill="#F5F5F5"/>
<g id="U&#197;&#190;duotis 3 " clip-path="url(#clip0_1_1122)">
<rect width="796" height="567" transform="translate(-608 -314)" fill="#131417"/>
<g id="div">
<rect x="-542" y="-208" width="675" height="355" rx="12" fill="#222225" fill-opacity="0.7"/>
<g id="text and button">
<path id="Get the most out of the platform with Our University, on-demand demos, live webinars, and more." d="M-461.222 -19.5C-461.339 -19.8587 -461.493 -20.18 -461.685 -20.4641C-461.873 -20.7518 -462.099 -20.9968 -462.362 -21.1992C-462.621 -21.4016 -462.915 -21.5561 -463.246 -21.6626C-463.576 -21.7692 -463.938 -21.8224 -464.332 -21.8224C-464.979 -21.8224 -465.566 -21.6555 -466.096 -21.3217C-466.625 -20.9879 -467.045 -20.4961 -467.358 -19.8462C-467.67 -19.1964 -467.827 -18.3991 -467.827 -17.4545C-467.827 -16.5099 -467.669 -15.7127 -467.353 -15.0629C-467.037 -14.413 -466.609 -13.9212 -466.069 -13.5874C-465.529 -13.2536 -464.922 -13.0866 -464.247 -13.0866C-463.622 -13.0866 -463.072 -13.2198 -462.596 -13.4862C-462.116 -13.756 -461.744 -14.136 -461.477 -14.6261C-461.207 -15.1197 -461.072 -15.7003 -461.072 -16.3679L-460.668 -16.2827H-463.949V-17.4545H-459.794V-16.2827C-459.794 -15.3842 -459.986 -14.603 -460.369 -13.9389C-460.749 -13.2749 -461.275 -12.7599 -461.946 -12.3942C-462.614 -12.032 -463.381 -11.8509 -464.247 -11.8509C-465.213 -11.8509 -466.062 -12.0781 -466.793 -12.5327C-467.521 -12.9872 -468.089 -13.6335 -468.498 -14.4716C-468.903 -15.3097 -469.105 -16.304 -469.105 -17.4545C-469.105 -18.3175 -468.99 -19.0934 -468.759 -19.7823C-468.525 -20.4748 -468.194 -21.0643 -467.768 -21.5508C-467.342 -22.0373 -466.838 -22.4102 -466.255 -22.6694C-465.673 -22.9286 -465.032 -23.0582 -464.332 -23.0582C-463.757 -23.0582 -463.221 -22.9712 -462.724 -22.7972C-462.223 -22.6268 -461.777 -22.3835 -461.387 -22.0675C-460.993 -21.755 -460.664 -21.3803 -460.401 -20.9435C-460.138 -20.5103 -459.957 -20.0291 -459.858 -19.5H-461.222ZM-454.272 -11.8295C-455.06 -11.8295 -455.74 -12.0036 -456.312 -12.3516C-456.88 -12.7031 -457.318 -13.1932 -457.627 -13.8217C-457.933 -14.4538 -458.085 -15.1889 -458.085 -16.027C-458.085 -16.8651 -457.933 -17.6037 -457.627 -18.2429C-457.318 -18.8857 -456.889 -19.3864 -456.338 -19.745C-455.784 -20.1072 -455.138 -20.2884 -454.399 -20.2884C-453.973 -20.2884 -453.552 -20.2173 -453.137 -20.0753C-452.722 -19.9332 -452.343 -19.7024 -452.002 -19.3828C-451.661 -19.0668 -451.39 -18.6477 -451.187 -18.1257C-450.985 -17.6037 -450.884 -16.9609 -450.884 -16.1974V-15.6648H-457.191V-16.7514H-452.162C-452.162 -17.2131 -452.255 -17.625 -452.439 -17.9872C-452.62 -18.3494 -452.88 -18.6353 -453.217 -18.8448C-453.551 -19.0543 -453.945 -19.1591 -454.399 -19.1591C-454.9 -19.1591 -455.333 -19.0348 -455.699 -18.7862C-456.061 -18.5412 -456.34 -18.2216 -456.535 -17.8274C-456.731 -17.4332 -456.828 -17.0107 -456.828 -16.5597V-15.8352C-456.828 -15.2173 -456.722 -14.6935 -456.509 -14.2638C-456.292 -13.8377 -455.992 -13.5128 -455.609 -13.2891C-455.225 -13.0689 -454.779 -12.9588 -454.272 -12.9588C-453.941 -12.9588 -453.643 -13.005 -453.377 -13.0973C-453.107 -13.1932 -452.874 -13.3352 -452.679 -13.5234C-452.484 -13.7152 -452.333 -13.9531 -452.226 -14.2372L-451.012 -13.8963C-451.139 -13.4844 -451.354 -13.1222 -451.656 -12.8097C-451.958 -12.5007 -452.331 -12.2592 -452.775 -12.0852C-453.219 -11.9148 -453.718 -11.8295 -454.272 -11.8295ZM-445.413 -20.1818V-19.1165H-449.653V-20.1818H-445.413ZM-448.418 -22.142H-447.16V-14.3438C-447.16 -13.9886 -447.109 -13.7223 -447.006 -13.5447C-446.899 -13.3707 -446.764 -13.2536 -446.601 -13.1932C-446.434 -13.1364 -446.258 -13.108 -446.074 -13.108C-445.935 -13.108 -445.822 -13.1151 -445.733 -13.1293C-445.644 -13.147 -445.573 -13.1612 -445.52 -13.1719L-445.264 -12.0426C-445.349 -12.0107 -445.468 -11.9787 -445.621 -11.9467C-445.774 -11.9112 -445.967 -11.8935 -446.202 -11.8935C-446.557 -11.8935 -446.905 -11.9698 -447.246 -12.1225C-447.583 -12.2752 -447.864 -12.5078 -448.087 -12.8203C-448.307 -13.1328 -448.418 -13.527 -448.418 -14.0028V-22.142ZM-435.745 -20.1818V-19.1165H-439.985V-20.1818H-435.745ZM-438.75 -22.142H-437.492V-14.3438C-437.492 -13.9886 -437.441 -13.7223 -437.338 -13.5447C-437.231 -13.3707 -437.097 -13.2536 -436.933 -13.1932C-436.766 -13.1364 -436.59 -13.108 -436.406 -13.108C-436.267 -13.108 -436.154 -13.1151 -436.065 -13.1293C-435.976 -13.147 -435.905 -13.1612 -435.852 -13.1719L-435.596 -12.0426C-435.681 -12.0107 -435.8 -11.9787 -435.953 -11.9467C-436.106 -11.9112 -436.299 -11.8935 -436.534 -11.8935C-436.889 -11.8935 -437.237 -11.9698 -437.578 -12.1225C-437.915 -12.2752 -438.196 -12.5078 -438.419 -12.8203C-438.639 -13.1328 -438.75 -13.527 -438.75 -14.0028V-22.142ZM-432.421 -16.9219V-12H-433.679V-22.9091H-432.421V-18.9034H-432.315C-432.123 -19.326 -431.835 -19.6616 -431.452 -19.9102C-431.065 -20.1623 -430.55 -20.2884 -429.907 -20.2884C-429.35 -20.2884 -428.861 -20.1765 -428.442 -19.9528C-428.023 -19.7326 -427.698 -19.3935 -427.468 -18.9354C-427.233 -18.4808 -427.116 -17.902 -427.116 -17.1989V-12H-428.373V-17.1136C-428.373 -17.7635 -428.542 -18.266 -428.879 -18.6211C-429.213 -18.9798 -429.676 -19.1591 -430.269 -19.1591C-430.681 -19.1591 -431.051 -19.0721 -431.377 -18.8981C-431.701 -18.7241 -431.956 -18.4702 -432.144 -18.1364C-432.329 -17.8026 -432.421 -17.3977 -432.421 -16.9219ZM-421.386 -11.8295C-422.174 -11.8295 -422.854 -12.0036 -423.426 -12.3516C-423.994 -12.7031 -424.433 -13.1932 -424.742 -13.8217C-425.047 -14.4538 -425.2 -15.1889 -425.2 -16.027C-425.2 -16.8651 -425.047 -17.6037 -424.742 -18.2429C-424.433 -18.8857 -424.003 -19.3864 -423.453 -19.745C-422.899 -20.1072 -422.252 -20.2884 -421.514 -20.2884C-421.088 -20.2884 -420.667 -20.2173 -420.251 -20.0753C-419.836 -19.9332 -419.458 -19.7024 -419.117 -19.3828C-418.776 -19.0668 -418.504 -18.6477 -418.302 -18.1257C-418.099 -17.6037 -417.998 -16.9609 -417.998 -16.1974V-15.6648H-424.305V-16.7514H-419.276C-419.276 -17.2131 -419.369 -17.625 -419.553 -17.9872C-419.735 -18.3494 -419.994 -18.6353 -420.331 -18.8448C-420.665 -19.0543 -421.059 -19.1591 -421.514 -19.1591C-422.014 -19.1591 -422.448 -19.0348 -422.813 -18.7862C-423.176 -18.5412 -423.454 -18.2216 -423.65 -17.8274C-423.845 -17.4332 -423.943 -17.0107 -423.943 -16.5597V-15.8352C-423.943 -15.2173 -423.836 -14.6935 -423.623 -14.2638C-423.406 -13.8377 -423.106 -13.5128 -422.723 -13.2891C-422.339 -13.0689 -421.894 -12.9588 -421.386 -12.9588C-421.056 -12.9588 -420.757 -13.005 -420.491 -13.0973C-420.221 -13.1932 -419.988 -13.3352 -419.793 -13.5234C-419.598 -13.7152 -419.447 -13.9531 -419.34 -14.2372L-418.126 -13.8963C-418.254 -13.4844 -418.469 -13.1222 -418.77 -12.8097C-419.072 -12.5007 -419.445 -12.2592 -419.889 -12.0852C-420.333 -11.9148 -420.832 -11.8295 -421.386 -11.8295ZM-411.867 -12V-20.1818H-410.653V-18.9034H-410.546C-410.376 -19.3402 -410.1 -19.6793 -409.72 -19.9208C-409.34 -20.1658 -408.884 -20.2884 -408.351 -20.2884C-407.812 -20.2884 -407.362 -20.1658 -407.004 -19.9208C-406.642 -19.6793 -406.359 -19.3402 -406.157 -18.9034H-406.072C-405.862 -19.326 -405.548 -19.6616 -405.129 -19.9102C-404.71 -20.1623 -404.207 -20.2884 -403.621 -20.2884C-402.89 -20.2884 -402.291 -20.0593 -401.826 -19.6012C-401.361 -19.1467 -401.128 -18.4382 -401.128 -17.4759V-12H-402.385V-17.4759C-402.385 -18.0795 -402.551 -18.511 -402.881 -18.7702C-403.211 -19.0295 -403.6 -19.1591 -404.047 -19.1591C-404.623 -19.1591 -405.068 -18.9851 -405.384 -18.6371C-405.7 -18.2926 -405.858 -17.8558 -405.858 -17.3267V-12H-407.137V-17.6037C-407.137 -18.0689 -407.288 -18.4435 -407.59 -18.7276C-407.892 -19.0153 -408.28 -19.1591 -408.756 -19.1591C-409.083 -19.1591 -409.388 -19.0721 -409.672 -18.8981C-409.953 -18.7241 -410.18 -18.4826 -410.354 -18.1737C-410.525 -17.8683 -410.61 -17.5149 -410.61 -17.1136V-12H-411.867ZM-395.506 -11.8295C-396.245 -11.8295 -396.893 -12.0053 -397.45 -12.3569C-398.004 -12.7085 -398.438 -13.2003 -398.75 -13.8324C-399.059 -14.4645 -399.213 -15.2031 -399.213 -16.0483C-399.213 -16.9006 -399.059 -17.6445 -398.75 -18.2802C-398.438 -18.9158 -398.004 -19.4094 -397.45 -19.761C-396.893 -20.1126 -396.245 -20.2884 -395.506 -20.2884C-394.767 -20.2884 -394.121 -20.1126 -393.567 -19.761C-393.01 -19.4094 -392.576 -18.9158 -392.267 -18.2802C-391.955 -17.6445 -391.799 -16.9006 -391.799 -16.0483C-391.799 -15.2031 -391.955 -14.4645 -392.267 -13.8324C-392.576 -13.2003 -393.01 -12.7085 -393.567 -12.3569C-394.121 -12.0053 -394.767 -11.8295 -395.506 -11.8295ZM-395.506 -12.9588C-394.945 -12.9588 -394.483 -13.1026 -394.121 -13.3903C-393.759 -13.6779 -393.491 -14.0561 -393.317 -14.5249C-393.143 -14.9936 -393.056 -15.5014 -393.056 -16.0483C-393.056 -16.5952 -393.143 -17.1048 -393.317 -17.5771C-393.491 -18.0494 -393.759 -18.4311 -394.121 -18.7223C-394.483 -19.0135 -394.945 -19.1591 -395.506 -19.1591C-396.067 -19.1591 -396.529 -19.0135 -396.891 -18.7223C-397.253 -18.4311 -397.521 -18.0494 -397.695 -17.5771C-397.869 -17.1048 -397.956 -16.5952 -397.956 -16.0483C-397.956 -15.5014 -397.869 -14.9936 -397.695 -14.5249C-397.521 -14.0561 -397.253 -13.6779 -396.891 -13.3903C-396.529 -13.1026 -396.067 -12.9588 -395.506 -12.9588ZM-384.084 -18.3494L-385.214 -18.0298C-385.285 -18.218 -385.389 -18.4009 -385.528 -18.5785C-385.663 -18.7596 -385.847 -18.9087 -386.082 -19.0259C-386.316 -19.1431 -386.616 -19.2017 -386.982 -19.2017C-387.483 -19.2017 -387.9 -19.0863 -388.234 -18.8555C-388.564 -18.6282 -388.729 -18.3388 -388.729 -17.9872C-388.729 -17.6747 -388.616 -17.4279 -388.388 -17.2468C-388.161 -17.0657 -387.806 -16.9148 -387.323 -16.794L-386.108 -16.4957C-385.377 -16.3182 -384.832 -16.0465 -384.473 -15.6808C-384.114 -15.3185 -383.935 -14.8516 -383.935 -14.2798C-383.935 -13.8111 -384.07 -13.392 -384.34 -13.0227C-384.606 -12.6534 -384.979 -12.3622 -385.459 -12.1491C-385.938 -11.9361 -386.495 -11.8295 -387.131 -11.8295C-387.966 -11.8295 -388.656 -12.0107 -389.203 -12.3729C-389.75 -12.7351 -390.096 -13.2642 -390.242 -13.9602L-389.049 -14.2585C-388.935 -13.8182 -388.72 -13.4879 -388.404 -13.2678C-388.085 -13.0476 -387.667 -12.9375 -387.152 -12.9375C-386.566 -12.9375 -386.101 -13.0618 -385.757 -13.3104C-385.409 -13.5625 -385.235 -13.8643 -385.235 -14.2159C-385.235 -14.5 -385.334 -14.7379 -385.533 -14.9297C-385.732 -15.125 -386.037 -15.2706 -386.449 -15.3665L-387.813 -15.6861C-388.562 -15.8636 -389.113 -16.1388 -389.464 -16.5117C-389.812 -16.8881 -389.986 -17.3587 -389.986 -17.9233C-389.986 -18.3849 -389.857 -18.7933 -389.597 -19.1484C-389.335 -19.5036 -388.978 -19.7823 -388.527 -19.9847C-388.072 -20.1871 -387.557 -20.2884 -386.982 -20.2884C-386.172 -20.2884 -385.537 -20.1108 -385.075 -19.7557C-384.61 -19.4006 -384.28 -18.9318 -384.084 -18.3494ZM-378.485 -20.1818V-19.1165H-382.725V-20.1818H-378.485ZM-381.489 -22.142H-380.232V-14.3438C-380.232 -13.9886 -380.18 -13.7223 -380.077 -13.5447C-379.971 -13.3707 -379.836 -13.2536 -379.672 -13.1932C-379.506 -13.1364 -379.33 -13.108 -379.145 -13.108C-379.007 -13.108 -378.893 -13.1151 -378.804 -13.1293C-378.715 -13.147 -378.644 -13.1612 -378.591 -13.1719L-378.335 -12.0426C-378.421 -12.0107 -378.54 -11.9787 -378.692 -11.9467C-378.845 -11.9112 -379.039 -11.8935 -379.273 -11.8935C-379.628 -11.8935 -379.976 -11.9698 -380.317 -12.1225C-380.654 -12.2752 -380.935 -12.5078 -381.159 -12.8203C-381.379 -13.1328 -381.489 -13.527 -381.489 -14.0028V-22.142ZM-369.051 -11.8295C-369.79 -11.8295 -370.438 -12.0053 -370.995 -12.3569C-371.549 -12.7085 -371.982 -13.2003 -372.295 -13.8324C-372.604 -14.4645 -372.758 -15.2031 -372.758 -16.0483C-372.758 -16.9006 -372.604 -17.6445 -372.295 -18.2802C-371.982 -18.9158 -371.549 -19.4094 -370.995 -19.761C-370.438 -20.1126 -369.79 -20.2884 -369.051 -20.2884C-368.312 -20.2884 -367.666 -20.1126 -367.112 -19.761C-366.555 -19.4094 -366.121 -18.9158 -365.812 -18.2802C-365.5 -17.6445 -365.344 -16.9006 -365.344 -16.0483C-365.344 -15.2031 -365.5 -14.4645 -365.812 -13.8324C-366.121 -13.2003 -366.555 -12.7085 -367.112 -12.3569C-367.666 -12.0053 -368.312 -11.8295 -369.051 -11.8295ZM-369.051 -12.9588C-368.49 -12.9588 -368.028 -13.1026 -367.666 -13.3903C-367.304 -13.6779 -367.036 -14.0561 -366.862 -14.5249C-366.688 -14.9936 -366.601 -15.5014 -366.601 -16.0483C-366.601 -16.5952 -366.688 -17.1048 -366.862 -17.5771C-367.036 -18.0494 -367.304 -18.4311 -367.666 -18.7223C-368.028 -19.0135 -368.49 -19.1591 -369.051 -19.1591C-369.612 -19.1591 -370.074 -19.0135 -370.436 -18.7223C-370.798 -18.4311 -371.066 -18.0494 -371.24 -17.5771C-371.414 -17.1048 -371.501 -16.5952 -371.501 -16.0483C-371.501 -15.5014 -371.414 -14.9936 -371.24 -14.5249C-371.066 -14.0561 -370.798 -13.6779 -370.436 -13.3903C-370.074 -13.1026 -369.612 -12.9588 -369.051 -12.9588ZM-358.268 -15.3452V-20.1818H-357.011V-12H-358.268V-13.3849H-358.354C-358.545 -12.9695 -358.844 -12.6161 -359.248 -12.3249C-359.653 -12.0373 -360.165 -11.8935 -360.783 -11.8935C-361.294 -11.8935 -361.748 -12.0053 -362.146 -12.229C-362.544 -12.4563 -362.856 -12.7972 -363.084 -13.2518C-363.311 -13.7099 -363.425 -14.2869 -363.425 -14.983V-20.1818H-362.168V-15.0682C-362.168 -14.4716 -362.001 -13.9957 -361.667 -13.6406C-361.329 -13.2855 -360.9 -13.108 -360.378 -13.108C-360.065 -13.108 -359.747 -13.1879 -359.424 -13.3477C-359.098 -13.5075 -358.824 -13.7525 -358.604 -14.0827C-358.38 -14.413 -358.268 -14.8338 -358.268 -15.3452ZM-351.151 -20.1818V-19.1165H-355.391V-20.1818H-351.151ZM-354.155 -22.142H-352.898V-14.3438C-352.898 -13.9886 -352.846 -13.7223 -352.743 -13.5447C-352.637 -13.3707 -352.502 -13.2536 -352.338 -13.1932C-352.172 -13.1364 -351.996 -13.108 -351.811 -13.108C-351.673 -13.108 -351.559 -13.1151 -351.47 -13.1293C-351.381 -13.147 -351.31 -13.1612 -351.257 -13.1719L-351.001 -12.0426C-351.087 -12.0107 -351.206 -11.9787 -351.358 -11.9467C-351.511 -11.9112 -351.705 -11.8935 -351.939 -11.8935C-352.294 -11.8935 -352.642 -11.9698 -352.983 -12.1225C-353.32 -12.2752 -353.601 -12.5078 -353.825 -12.8203C-354.045 -13.1328 -354.155 -13.527 -354.155 -14.0028V-22.142ZM-341.717 -11.8295C-342.456 -11.8295 -343.104 -12.0053 -343.661 -12.3569C-344.215 -12.7085 -344.648 -13.2003 -344.961 -13.8324C-345.27 -14.4645 -345.424 -15.2031 -345.424 -16.0483C-345.424 -16.9006 -345.27 -17.6445 -344.961 -18.2802C-344.648 -18.9158 -344.215 -19.4094 -343.661 -19.761C-343.104 -20.1126 -342.456 -20.2884 -341.717 -20.2884C-340.978 -20.2884 -340.332 -20.1126 -339.778 -19.761C-339.221 -19.4094 -338.787 -18.9158 -338.478 -18.2802C-338.166 -17.6445 -338.01 -16.9006 -338.01 -16.0483C-338.01 -15.2031 -338.166 -14.4645 -338.478 -13.8324C-338.787 -13.2003 -339.221 -12.7085 -339.778 -12.3569C-340.332 -12.0053 -340.978 -11.8295 -341.717 -11.8295ZM-341.717 -12.9588C-341.156 -12.9588 -340.694 -13.1026 -340.332 -13.3903C-339.97 -13.6779 -339.702 -14.0561 -339.528 -14.5249C-339.354 -14.9936 -339.267 -15.5014 -339.267 -16.0483C-339.267 -16.5952 -339.354 -17.1048 -339.528 -17.5771C-339.702 -18.0494 -339.97 -18.4311 -340.332 -18.7223C-340.694 -19.0135 -341.156 -19.1591 -341.717 -19.1591C-342.278 -19.1591 -342.74 -19.0135 -343.102 -18.7223C-343.464 -18.4311 -343.732 -18.0494 -343.906 -17.5771C-344.08 -17.1048 -344.167 -16.5952 -344.167 -16.0483C-344.167 -15.5014 -344.08 -14.9936 -343.906 -14.5249C-343.732 -14.0561 -343.464 -13.6779 -343.102 -13.3903C-342.74 -13.1026 -342.278 -12.9588 -341.717 -12.9588ZM-332.447 -20.1818V-19.1165H-336.858V-20.1818H-332.447ZM-335.537 -12V-21.3111C-335.537 -21.7798 -335.427 -22.1705 -335.206 -22.483C-334.986 -22.7955 -334.7 -23.0298 -334.349 -23.1861C-333.997 -23.3423 -333.626 -23.4205 -333.236 -23.4205C-332.927 -23.4205 -332.674 -23.3956 -332.479 -23.3459C-332.284 -23.2962 -332.138 -23.25 -332.042 -23.2074L-332.405 -22.1207C-332.468 -22.142 -332.557 -22.1687 -332.671 -22.2006C-332.781 -22.2326 -332.927 -22.2486 -333.108 -22.2486C-333.523 -22.2486 -333.823 -22.1438 -334.008 -21.9343C-334.189 -21.7248 -334.28 -21.4176 -334.28 -21.0128V-12H-335.537ZM-322.908 -20.1818V-19.1165H-327.148V-20.1818H-322.908ZM-325.913 -22.142H-324.656V-14.3438C-324.656 -13.9886 -324.604 -13.7223 -324.501 -13.5447C-324.395 -13.3707 -324.26 -13.2536 -324.096 -13.1932C-323.929 -13.1364 -323.754 -13.108 -323.569 -13.108C-323.43 -13.108 -323.317 -13.1151 -323.228 -13.1293C-323.139 -13.147 -323.068 -13.1612 -323.015 -13.1719L-322.759 -12.0426C-322.844 -12.0107 -322.963 -11.9787 -323.116 -11.9467C-323.269 -11.9112 -323.462 -11.8935 -323.697 -11.8935C-324.052 -11.8935 -324.4 -11.9698 -324.741 -12.1225C-325.078 -12.2752 -325.359 -12.5078 -325.582 -12.8203C-325.803 -13.1328 -325.913 -13.527 -325.913 -14.0028V-22.142ZM-319.585 -16.9219V-12H-320.842V-22.9091H-319.585V-18.9034H-319.478C-319.286 -19.326 -318.999 -19.6616 -318.615 -19.9102C-318.228 -20.1623 -317.713 -20.2884 -317.07 -20.2884C-316.513 -20.2884 -316.025 -20.1765 -315.605 -19.9528C-315.186 -19.7326 -314.862 -19.3935 -314.631 -18.9354C-314.396 -18.4808 -314.279 -17.902 -314.279 -17.1989V-12H-315.536V-17.1136C-315.536 -17.7635 -315.705 -18.266 -316.042 -18.6211C-316.376 -18.9798 -316.839 -19.1591 -317.433 -19.1591C-317.844 -19.1591 -318.214 -19.0721 -318.54 -18.8981C-318.864 -18.7241 -319.119 -18.4702 -319.308 -18.1364C-319.492 -17.8026 -319.585 -17.3977 -319.585 -16.9219ZM-308.549 -11.8295C-309.337 -11.8295 -310.017 -12.0036 -310.589 -12.3516C-311.157 -12.7031 -311.596 -13.1932 -311.905 -13.8217C-312.21 -14.4538 -312.363 -15.1889 -312.363 -16.027C-312.363 -16.8651 -312.21 -17.6037 -311.905 -18.2429C-311.596 -18.8857 -311.166 -19.3864 -310.616 -19.745C-310.062 -20.1072 -309.415 -20.2884 -308.677 -20.2884C-308.251 -20.2884 -307.83 -20.2173 -307.414 -20.0753C-306.999 -19.9332 -306.621 -19.7024 -306.28 -19.3828C-305.939 -19.0668 -305.667 -18.6477 -305.465 -18.1257C-305.262 -17.6037 -305.161 -16.9609 -305.161 -16.1974V-15.6648H-311.468V-16.7514H-306.44C-306.44 -17.2131 -306.532 -17.625 -306.717 -17.9872C-306.898 -18.3494 -307.157 -18.6353 -307.494 -18.8448C-307.828 -19.0543 -308.222 -19.1591 -308.677 -19.1591C-309.177 -19.1591 -309.611 -19.0348 -309.976 -18.7862C-310.339 -18.5412 -310.617 -18.2216 -310.813 -17.8274C-311.008 -17.4332 -311.106 -17.0107 -311.106 -16.5597V-15.8352C-311.106 -15.2173 -310.999 -14.6935 -310.786 -14.2638C-310.57 -13.8377 -310.269 -13.5128 -309.886 -13.2891C-309.502 -13.0689 -309.057 -12.9588 -308.549 -12.9588C-308.219 -12.9588 -307.92 -13.005 -307.654 -13.0973C-307.384 -13.1932 -307.152 -13.3352 -306.956 -13.5234C-306.761 -13.7152 -306.61 -13.9531 -306.503 -14.2372L-305.289 -13.8963C-305.417 -13.4844 -305.632 -13.1222 -305.934 -12.8097C-306.235 -12.5007 -306.608 -12.2592 -307.052 -12.0852C-307.496 -11.9148 -307.995 -11.8295 -308.549 -11.8295ZM-299.03 -8.93182V-20.1818H-297.816V-18.8821H-297.666C-297.574 -19.0241 -297.446 -19.2053 -297.283 -19.4254C-297.116 -19.6491 -296.878 -19.848 -296.569 -20.022C-296.257 -20.1996 -295.834 -20.2884 -295.301 -20.2884C-294.612 -20.2884 -294.005 -20.1161 -293.48 -19.7717C-292.954 -19.4272 -292.544 -18.9389 -292.249 -18.3068C-291.954 -17.6747 -291.807 -16.929 -291.807 -16.0696C-291.807 -15.2031 -291.954 -14.4521 -292.249 -13.8164C-292.544 -13.1843 -292.952 -12.6942 -293.474 -12.3462C-293.996 -12.0018 -294.598 -11.8295 -295.28 -11.8295C-295.806 -11.8295 -296.226 -11.9165 -296.543 -12.0906C-296.859 -12.2681 -297.102 -12.4688 -297.272 -12.6925C-297.443 -12.9197 -297.574 -13.108 -297.666 -13.2571H-297.773V-8.93182H-299.03ZM-297.794 -16.0909C-297.794 -15.473 -297.704 -14.9279 -297.523 -14.4556C-297.342 -13.9869 -297.077 -13.6193 -296.729 -13.353C-296.381 -13.0902 -295.955 -12.9588 -295.451 -12.9588C-294.925 -12.9588 -294.486 -13.0973 -294.135 -13.3743C-293.78 -13.6548 -293.513 -14.0313 -293.336 -14.5036C-293.155 -14.9794 -293.064 -15.5085 -293.064 -16.0909C-293.064 -16.6662 -293.153 -17.1847 -293.331 -17.6463C-293.505 -18.1115 -293.769 -18.479 -294.124 -18.7489C-294.476 -19.0224 -294.918 -19.1591 -295.451 -19.1591C-295.962 -19.1591 -296.392 -19.0295 -296.74 -18.7702C-297.088 -18.5146 -297.35 -18.1559 -297.528 -17.6942C-297.706 -17.2362 -297.794 -16.7017 -297.794 -16.0909ZM-288.632 -22.9091V-12H-289.889V-22.9091H-288.632ZM-283.922 -11.8082C-284.441 -11.8082 -284.911 -11.9059 -285.334 -12.1012C-285.756 -12.3001 -286.092 -12.5859 -286.341 -12.9588C-286.589 -13.3352 -286.713 -13.7898 -286.713 -14.3224C-286.713 -14.7912 -286.621 -15.1712 -286.436 -15.4624C-286.252 -15.7571 -286.005 -15.9879 -285.696 -16.1548C-285.387 -16.3217 -285.046 -16.446 -284.673 -16.5277C-284.297 -16.6129 -283.919 -16.6804 -283.539 -16.7301C-283.042 -16.794 -282.638 -16.842 -282.33 -16.8739C-282.017 -16.9094 -281.79 -16.968 -281.648 -17.0497C-281.502 -17.1314 -281.429 -17.2734 -281.429 -17.4759V-17.5185C-281.429 -18.044 -281.573 -18.4524 -281.861 -18.7436C-282.145 -19.0348 -282.576 -19.1804 -283.155 -19.1804C-283.755 -19.1804 -284.226 -19.049 -284.567 -18.7862C-284.908 -18.5234 -285.147 -18.2429 -285.286 -17.9446L-286.479 -18.3707C-286.266 -18.8679 -285.982 -19.255 -285.627 -19.532C-285.268 -19.8125 -284.877 -20.0078 -284.455 -20.1179C-284.029 -20.2315 -283.61 -20.2884 -283.198 -20.2884C-282.935 -20.2884 -282.633 -20.2564 -282.292 -20.1925C-281.948 -20.1321 -281.616 -20.006 -281.296 -19.8143C-280.973 -19.6225 -280.705 -19.3331 -280.492 -18.946C-280.279 -18.5589 -280.172 -18.0405 -280.172 -17.3906V-12H-281.429V-13.108H-281.493C-281.578 -12.9304 -281.721 -12.7404 -281.919 -12.538C-282.118 -12.3356 -282.383 -12.1634 -282.713 -12.0213C-283.043 -11.8793 -283.446 -11.8082 -283.922 -11.8082ZM-283.73 -12.9375C-283.233 -12.9375 -282.814 -13.0352 -282.473 -13.2305C-282.129 -13.4258 -281.87 -13.6779 -281.696 -13.9869C-281.518 -14.2958 -281.429 -14.6207 -281.429 -14.9616V-16.1122C-281.483 -16.0483 -281.6 -15.9897 -281.781 -15.9364C-281.958 -15.8867 -282.164 -15.8423 -282.399 -15.8033C-282.63 -15.7678 -282.855 -15.7358 -283.075 -15.7074C-283.292 -15.6825 -283.468 -15.6612 -283.603 -15.6435C-283.929 -15.6009 -284.235 -15.5316 -284.519 -15.4357C-284.799 -15.3434 -285.027 -15.2031 -285.201 -15.0149C-285.371 -14.8303 -285.456 -14.5781 -285.456 -14.2585C-285.456 -13.8217 -285.295 -13.4915 -284.972 -13.2678C-284.645 -13.0476 -284.231 -12.9375 -283.73 -12.9375ZM-274.32 -20.1818V-19.1165H-278.56V-20.1818H-274.32ZM-277.324 -22.142H-276.067V-14.3438C-276.067 -13.9886 -276.015 -13.7223 -275.912 -13.5447C-275.806 -13.3707 -275.671 -13.2536 -275.507 -13.1932C-275.34 -13.1364 -275.165 -13.108 -274.98 -13.108C-274.842 -13.108 -274.728 -13.1151 -274.639 -13.1293C-274.55 -13.147 -274.479 -13.1612 -274.426 -13.1719L-274.17 -12.0426C-274.256 -12.0107 -274.375 -11.9787 -274.527 -11.9467C-274.68 -11.9112 -274.873 -11.8935 -275.108 -11.8935C-275.463 -11.8935 -275.811 -11.9698 -276.152 -12.1225C-276.489 -12.2752 -276.77 -12.5078 -276.994 -12.8203C-277.214 -13.1328 -277.324 -13.527 -277.324 -14.0028V-22.142ZM-268.785 -20.1818V-19.1165H-273.196V-20.1818H-268.785ZM-271.875 -12V-21.3111C-271.875 -21.7798 -271.764 -22.1705 -271.544 -22.483C-271.324 -22.7955 -271.038 -23.0298 -270.687 -23.1861C-270.335 -23.3423 -269.964 -23.4205 -269.573 -23.4205C-269.264 -23.4205 -269.012 -23.3956 -268.817 -23.3459C-268.622 -23.2962 -268.476 -23.25 -268.38 -23.2074L-268.742 -22.1207C-268.806 -22.142 -268.895 -22.1687 -269.009 -22.2006C-269.119 -22.2326 -269.264 -22.2486 -269.446 -22.2486C-269.861 -22.2486 -270.161 -22.1438 -270.346 -21.9343C-270.527 -21.7248 -270.617 -21.4176 -270.617 -21.0128V-12H-271.875ZM-264.036 -11.8295C-264.775 -11.8295 -265.423 -12.0053 -265.981 -12.3569C-266.535 -12.7085 -266.968 -13.2003 -267.28 -13.8324C-267.589 -14.4645 -267.744 -15.2031 -267.744 -16.0483C-267.744 -16.9006 -267.589 -17.6445 -267.28 -18.2802C-266.968 -18.9158 -266.535 -19.4094 -265.981 -19.761C-265.423 -20.1126 -264.775 -20.2884 -264.036 -20.2884C-263.298 -20.2884 -262.651 -20.1126 -262.097 -19.761C-261.54 -19.4094 -261.107 -18.9158 -260.798 -18.2802C-260.485 -17.6445 -260.329 -16.9006 -260.329 -16.0483C-260.329 -15.2031 -260.485 -14.4645 -260.798 -13.8324C-261.107 -13.2003 -261.54 -12.7085 -262.097 -12.3569C-262.651 -12.0053 -263.298 -11.8295 -264.036 -11.8295ZM-264.036 -12.9588C-263.475 -12.9588 -263.014 -13.1026 -262.651 -13.3903C-262.289 -13.6779 -262.021 -14.0561 -261.847 -14.5249C-261.673 -14.9936 -261.586 -15.5014 -261.586 -16.0483C-261.586 -16.5952 -261.673 -17.1048 -261.847 -17.5771C-262.021 -18.0494 -262.289 -18.4311 -262.651 -18.7223C-263.014 -19.0135 -263.475 -19.1591 -264.036 -19.1591C-264.597 -19.1591 -265.059 -19.0135 -265.421 -18.7223C-265.783 -18.4311 -266.052 -18.0494 -266.226 -17.5771C-266.4 -17.1048 -266.487 -16.5952 -266.487 -16.0483C-266.487 -15.5014 -266.4 -14.9936 -266.226 -14.5249C-266.052 -14.0561 -265.783 -13.6779 -265.421 -13.3903C-265.059 -13.1026 -264.597 -12.9588 -264.036 -12.9588ZM-258.41 -12V-20.1818H-257.195V-18.946H-257.11C-256.961 -19.3509 -256.691 -19.6793 -256.301 -19.9315C-255.91 -20.1836 -255.47 -20.3097 -254.98 -20.3097C-254.887 -20.3097 -254.772 -20.3079 -254.633 -20.3043C-254.495 -20.3008 -254.39 -20.2955 -254.319 -20.2884V-19.0099C-254.362 -19.0206 -254.459 -19.0366 -254.612 -19.0579C-254.761 -19.0827 -254.919 -19.0952 -255.086 -19.0952C-255.484 -19.0952 -255.839 -19.0117 -256.151 -18.8448C-256.46 -18.6815 -256.705 -18.4542 -256.887 -18.163C-257.064 -17.8754 -257.153 -17.5469 -257.153 -17.1776V-12H-258.41ZM-252.829 -12V-20.1818H-251.614V-18.9034H-251.508C-251.337 -19.3402 -251.062 -19.6793 -250.682 -19.9208C-250.302 -20.1658 -249.846 -20.2884 -249.313 -20.2884C-248.774 -20.2884 -248.324 -20.1658 -247.966 -19.9208C-247.603 -19.6793 -247.321 -19.3402 -247.119 -18.9034H-247.033C-246.824 -19.326 -246.51 -19.6616 -246.091 -19.9102C-245.672 -20.1623 -245.169 -20.2884 -244.583 -20.2884C-243.852 -20.2884 -243.253 -20.0593 -242.788 -19.6012C-242.323 -19.1467 -242.09 -18.4382 -242.09 -17.4759V-12H-243.347V-17.4759C-243.347 -18.0795 -243.513 -18.511 -243.843 -18.7702C-244.173 -19.0295 -244.562 -19.1591 -245.009 -19.1591C-245.585 -19.1591 -246.03 -18.9851 -246.346 -18.6371C-246.662 -18.2926 -246.82 -17.8558 -246.82 -17.3267V-12H-248.099V-17.6037C-248.099 -18.0689 -248.25 -18.4435 -248.552 -18.7276C-248.853 -19.0153 -249.242 -19.1591 -249.718 -19.1591C-250.045 -19.1591 -250.35 -19.0721 -250.634 -18.8981C-250.915 -18.7241 -251.142 -18.4826 -251.316 -18.1737C-251.487 -17.8683 -251.572 -17.5149 -251.572 -17.1136V-12H-252.829ZM-233.719 -12L-236.212 -20.1818H-234.891L-233.123 -13.9176H-233.038L-231.29 -20.1818H-229.948L-228.222 -13.9389H-228.137L-226.369 -20.1818H-225.047L-227.54 -12H-228.776L-230.566 -18.2855H-230.694L-232.484 -12H-233.719ZM-223.386 -12V-20.1818H-222.128V-12H-223.386ZM-222.746 -21.5455C-222.991 -21.5455 -223.203 -21.6289 -223.38 -21.7958C-223.554 -21.9627 -223.641 -22.1634 -223.641 -22.3977C-223.641 -22.6321 -223.554 -22.8327 -223.38 -22.9996C-223.203 -23.1665 -222.991 -23.25 -222.746 -23.25C-222.501 -23.25 -222.292 -23.1665 -222.118 -22.9996C-221.94 -22.8327 -221.851 -22.6321 -221.851 -22.3977C-221.851 -22.1634 -221.94 -21.9627 -222.118 -21.7958C-222.292 -21.6289 -222.501 -21.5455 -222.746 -21.5455ZM-216.268 -20.1818V-19.1165H-220.508V-20.1818H-216.268ZM-219.272 -22.142H-218.015V-14.3438C-218.015 -13.9886 -217.963 -13.7223 -217.86 -13.5447C-217.754 -13.3707 -217.619 -13.2536 -217.456 -13.1932C-217.289 -13.1364 -217.113 -13.108 -216.928 -13.108C-216.79 -13.108 -216.676 -13.1151 -216.587 -13.1293C-216.499 -13.147 -216.428 -13.1612 -216.374 -13.1719L-216.119 -12.0426C-216.204 -12.0107 -216.323 -11.9787 -216.475 -11.9467C-216.628 -11.9112 -216.822 -11.8935 -217.056 -11.8935C-217.411 -11.8935 -217.759 -11.9698 -218.1 -12.1225C-218.437 -12.2752 -218.718 -12.5078 -218.942 -12.8203C-219.162 -13.1328 -219.272 -13.527 -219.272 -14.0028V-22.142ZM-212.944 -16.9219V-12H-214.201V-22.9091H-212.944V-18.9034H-212.837C-212.646 -19.326 -212.358 -19.6616 -211.974 -19.9102C-211.587 -20.1623 -211.072 -20.2884 -210.43 -20.2884C-209.872 -20.2884 -209.384 -20.1765 -208.965 -19.9528C-208.546 -19.7326 -208.221 -19.3935 -207.99 -18.9354C-207.756 -18.4808 -207.638 -17.902 -207.638 -17.1989V-12H-208.896V-17.1136C-208.896 -17.7635 -209.064 -18.266 -209.402 -18.6211C-209.735 -18.9798 -210.199 -19.1591 -210.792 -19.1591C-211.204 -19.1591 -211.573 -19.0721 -211.9 -18.8981C-212.223 -18.7241 -212.479 -18.4702 -212.667 -18.1364C-212.852 -17.8026 -212.944 -17.3977 -212.944 -16.9219ZM-191.745 -17.4545C-191.745 -16.304 -191.953 -15.3097 -192.368 -14.4716C-192.784 -13.6335 -193.354 -12.9872 -194.078 -12.5327C-194.802 -12.0781 -195.63 -11.8509 -196.56 -11.8509C-197.491 -11.8509 -198.318 -12.0781 -199.043 -12.5327C-199.767 -12.9872 -200.337 -13.6335 -200.752 -14.4716C-201.168 -15.3097 -201.376 -16.304 -201.376 -17.4545C-201.376 -18.6051 -201.168 -19.5994 -200.752 -20.4375C-200.337 -21.2756 -199.767 -21.9219 -199.043 -22.3764C-198.318 -22.831 -197.491 -23.0582 -196.56 -23.0582C-195.63 -23.0582 -194.802 -22.831 -194.078 -22.3764C-193.354 -21.9219 -192.784 -21.2756 -192.368 -20.4375C-191.953 -19.5994 -191.745 -18.6051 -191.745 -17.4545ZM-193.023 -17.4545C-193.023 -18.3991 -193.181 -19.1964 -193.497 -19.8462C-193.81 -20.4961 -194.234 -20.9879 -194.771 -21.3217C-195.303 -21.6555 -195.9 -21.8224 -196.56 -21.8224C-197.221 -21.8224 -197.819 -21.6555 -198.355 -21.3217C-198.888 -20.9879 -199.312 -20.4961 -199.628 -19.8462C-199.941 -19.1964 -200.097 -18.3991 -200.097 -17.4545C-200.097 -16.5099 -199.941 -15.7127 -199.628 -15.0629C-199.312 -14.413 -198.888 -13.9212 -198.355 -13.5874C-197.819 -13.2536 -197.221 -13.0866 -196.56 -13.0866C-195.9 -13.0866 -195.303 -13.2536 -194.771 -13.5874C-194.234 -13.9212 -193.81 -14.413 -193.497 -15.0629C-193.181 -15.7127 -193.023 -16.5099 -193.023 -17.4545ZM-184.538 -15.3452V-20.1818H-183.281V-12H-184.538V-13.3849H-184.623C-184.815 -12.9695 -185.113 -12.6161 -185.518 -12.3249C-185.923 -12.0373 -186.434 -11.8935 -187.052 -11.8935C-187.563 -11.8935 -188.018 -12.0053 -188.416 -12.229C-188.813 -12.4563 -189.126 -12.7972 -189.353 -13.2518C-189.581 -13.7099 -189.694 -14.2869 -189.694 -14.983V-20.1818H-188.437V-15.0682C-188.437 -14.4716 -188.27 -13.9957 -187.936 -13.6406C-187.599 -13.2855 -187.169 -13.108 -186.647 -13.108C-186.335 -13.108 -186.017 -13.1879 -185.694 -13.3477C-185.367 -13.5075 -185.094 -13.7525 -184.873 -14.0827C-184.65 -14.413 -184.538 -14.8338 -184.538 -15.3452ZM-180.978 -12V-20.1818H-179.764V-18.946H-179.679C-179.529 -19.3509 -179.26 -19.6793 -178.869 -19.9315C-178.478 -20.1836 -178.038 -20.3097 -177.548 -20.3097C-177.456 -20.3097 -177.34 -20.3079 -177.202 -20.3043C-177.063 -20.3008 -176.958 -20.2955 -176.887 -20.2884V-19.0099C-176.93 -19.0206 -177.028 -19.0366 -177.18 -19.0579C-177.33 -19.0827 -177.488 -19.0952 -177.654 -19.0952C-178.052 -19.0952 -178.407 -19.0117 -178.72 -18.8448C-179.029 -18.6815 -179.274 -18.4542 -179.455 -18.163C-179.632 -17.8754 -179.721 -17.5469 -179.721 -17.1776V-12H-180.978ZM-163.849 -22.9091H-162.528V-15.6861C-162.528 -14.9403 -162.704 -14.2745 -163.055 -13.6886C-163.403 -13.1062 -163.895 -12.6463 -164.531 -12.3089C-165.166 -11.9751 -165.912 -11.8082 -166.768 -11.8082C-167.624 -11.8082 -168.37 -11.9751 -169.005 -12.3089C-169.641 -12.6463 -170.134 -13.1062 -170.486 -13.6886C-170.834 -14.2745 -171.008 -14.9403 -171.008 -15.6861V-22.9091H-169.687V-15.7926C-169.687 -15.2599 -169.57 -14.7859 -169.335 -14.3704C-169.101 -13.9585 -168.767 -13.6335 -168.334 -13.3956C-167.897 -13.1612 -167.375 -13.044 -166.768 -13.044C-166.161 -13.044 -165.639 -13.1612 -165.202 -13.3956C-164.765 -13.6335 -164.431 -13.9585 -164.201 -14.3704C-163.966 -14.7859 -163.849 -15.2599 -163.849 -15.7926V-22.9091ZM-158.803 -16.9219V-12H-160.06V-20.1818H-158.846V-18.9034H-158.739C-158.548 -19.3189 -158.256 -19.6527 -157.866 -19.9048C-157.475 -20.1605 -156.971 -20.2884 -156.353 -20.2884C-155.799 -20.2884 -155.314 -20.1747 -154.899 -19.9474C-154.483 -19.7237 -154.16 -19.3828 -153.929 -18.9247C-153.699 -18.4702 -153.583 -17.8949 -153.583 -17.1989V-12H-154.84V-17.1136C-154.84 -17.7564 -155.007 -18.2571 -155.341 -18.6158C-155.675 -18.978 -156.133 -19.1591 -156.715 -19.1591C-157.116 -19.1591 -157.475 -19.0721 -157.791 -18.8981C-158.104 -18.7241 -158.35 -18.4702 -158.532 -18.1364C-158.713 -17.8026 -158.803 -17.3977 -158.803 -16.9219ZM-151.286 -12V-20.1818H-150.029V-12H-151.286ZM-150.647 -21.5455C-150.892 -21.5455 -151.103 -21.6289 -151.281 -21.7958C-151.455 -21.9627 -151.542 -22.1634 -151.542 -22.3977C-151.542 -22.6321 -151.455 -22.8327 -151.281 -22.9996C-151.103 -23.1665 -150.892 -23.25 -150.647 -23.25C-150.402 -23.25 -150.192 -23.1665 -150.018 -22.9996C-149.841 -22.8327 -149.752 -22.6321 -149.752 -22.3977C-149.752 -22.1634 -149.841 -21.9627 -150.018 -21.7958C-150.192 -21.6289 -150.402 -21.5455 -150.647 -21.5455ZM-141.036 -20.1818L-144.062 -12H-145.34L-148.366 -20.1818H-147.002L-144.743 -13.6619H-144.658L-142.4 -20.1818H-141.036ZM-136.239 -11.8295C-137.028 -11.8295 -137.708 -12.0036 -138.279 -12.3516C-138.848 -12.7031 -139.286 -13.1932 -139.595 -13.8217C-139.901 -14.4538 -140.053 -15.1889 -140.053 -16.027C-140.053 -16.8651 -139.901 -17.6037 -139.595 -18.2429C-139.286 -18.8857 -138.857 -19.3864 -138.306 -19.745C-137.752 -20.1072 -137.106 -20.2884 -136.367 -20.2884C-135.941 -20.2884 -135.52 -20.2173 -135.105 -20.0753C-134.689 -19.9332 -134.311 -19.7024 -133.97 -19.3828C-133.629 -19.0668 -133.358 -18.6477 -133.155 -18.1257C-132.953 -17.6037 -132.852 -16.9609 -132.852 -16.1974V-15.6648H-139.158V-16.7514H-134.13C-134.13 -17.2131 -134.222 -17.625 -134.407 -17.9872C-134.588 -18.3494 -134.847 -18.6353 -135.185 -18.8448C-135.518 -19.0543 -135.913 -19.1591 -136.367 -19.1591C-136.868 -19.1591 -137.301 -19.0348 -137.667 -18.7862C-138.029 -18.5412 -138.308 -18.2216 -138.503 -17.8274C-138.699 -17.4332 -138.796 -17.0107 -138.796 -16.5597V-15.8352C-138.796 -15.2173 -138.69 -14.6935 -138.477 -14.2638C-138.26 -13.8377 -137.96 -13.5128 -137.576 -13.2891C-137.193 -13.0689 -136.747 -12.9588 -136.239 -12.9588C-135.909 -12.9588 -135.611 -13.005 -135.344 -13.0973C-135.075 -13.1932 -134.842 -13.3352 -134.647 -13.5234C-134.451 -13.7152 -134.3 -13.9531 -134.194 -14.2372L-132.979 -13.8963C-133.107 -13.4844 -133.322 -13.1222 -133.624 -12.8097C-133.926 -12.5007 -134.299 -12.2592 -134.743 -12.0852C-135.186 -11.9148 -135.685 -11.8295 -136.239 -11.8295ZM-130.939 -12V-20.1818H-129.725V-18.946H-129.64C-129.49 -19.3509 -129.221 -19.6793 -128.83 -19.9315C-128.439 -20.1836 -127.999 -20.3097 -127.509 -20.3097C-127.417 -20.3097 -127.301 -20.3079 -127.163 -20.3043C-127.024 -20.3008 -126.919 -20.2955 -126.848 -20.2884V-19.0099C-126.891 -19.0206 -126.989 -19.0366 -127.141 -19.0579C-127.29 -19.0827 -127.449 -19.0952 -127.615 -19.0952C-128.013 -19.0952 -128.368 -19.0117 -128.681 -18.8448C-128.99 -18.6815 -129.235 -18.4542 -129.416 -18.163C-129.593 -17.8754 -129.682 -17.5469 -129.682 -17.1776V-12H-130.939ZM-119.563 -18.3494L-120.692 -18.0298C-120.763 -18.218 -120.868 -18.4009 -121.006 -18.5785C-121.141 -18.7596 -121.326 -18.9087 -121.56 -19.0259C-121.795 -19.1431 -122.095 -19.2017 -122.46 -19.2017C-122.961 -19.2017 -123.378 -19.0863 -123.712 -18.8555C-124.043 -18.6282 -124.208 -18.3388 -124.208 -17.9872C-124.208 -17.6747 -124.094 -17.4279 -123.867 -17.2468C-123.639 -17.0657 -123.284 -16.9148 -122.801 -16.794L-121.587 -16.4957C-120.855 -16.3182 -120.31 -16.0465 -119.952 -15.6808C-119.593 -15.3185 -119.414 -14.8516 -119.414 -14.2798C-119.414 -13.8111 -119.549 -13.392 -119.818 -13.0227C-120.085 -12.6534 -120.458 -12.3622 -120.937 -12.1491C-121.416 -11.9361 -121.974 -11.8295 -122.61 -11.8295C-123.444 -11.8295 -124.135 -12.0107 -124.682 -12.3729C-125.229 -12.7351 -125.575 -13.2642 -125.72 -13.9602L-124.527 -14.2585C-124.414 -13.8182 -124.199 -13.4879 -123.883 -13.2678C-123.563 -13.0476 -123.146 -12.9375 -122.631 -12.9375C-122.045 -12.9375 -121.58 -13.0618 -121.235 -13.3104C-120.887 -13.5625 -120.713 -13.8643 -120.713 -14.2159C-120.713 -14.5 -120.813 -14.7379 -121.012 -14.9297C-121.21 -15.125 -121.516 -15.2706 -121.928 -15.3665L-123.291 -15.6861C-124.041 -15.8636 -124.591 -16.1388 -124.943 -16.5117C-125.291 -16.8881 -125.465 -17.3587 -125.465 -17.9233C-125.465 -18.3849 -125.335 -18.7933 -125.076 -19.1484C-124.813 -19.5036 -124.456 -19.7823 -124.005 -19.9847C-123.551 -20.1871 -123.036 -20.2884 -122.46 -20.2884C-121.651 -20.2884 -121.015 -20.1108 -120.554 -19.7557C-120.088 -19.4006 -119.758 -18.9318 -119.563 -18.3494ZM-117.521 -12V-20.1818H-116.264V-12H-117.521ZM-116.882 -21.5455C-117.127 -21.5455 -117.338 -21.6289 -117.516 -21.7958C-117.69 -21.9627 -117.777 -22.1634 -117.777 -22.3977C-117.777 -22.6321 -117.69 -22.8327 -117.516 -22.9996C-117.338 -23.1665 -117.127 -23.25 -116.882 -23.25C-116.637 -23.25 -116.428 -23.1665 -116.254 -22.9996C-116.076 -22.8327 -115.987 -22.6321 -115.987 -22.3977C-115.987 -22.1634 -116.076 -21.9627 -116.254 -21.7958C-116.428 -21.6289 -116.637 -21.5455 -116.882 -21.5455ZM-110.403 -20.1818V-19.1165H-114.644V-20.1818H-110.403ZM-113.408 -22.142H-112.151V-14.3438C-112.151 -13.9886 -112.099 -13.7223 -111.996 -13.5447C-111.89 -13.3707 -111.755 -13.2536 -111.591 -13.1932C-111.424 -13.1364 -111.249 -13.108 -111.064 -13.108C-110.926 -13.108 -110.812 -13.1151 -110.723 -13.1293C-110.634 -13.147 -110.563 -13.1612 -110.51 -13.1719L-110.254 -12.0426C-110.34 -12.0107 -110.459 -11.9787 -110.611 -11.9467C-110.764 -11.9112 -110.957 -11.8935 -111.192 -11.8935C-111.547 -11.8935 -111.895 -11.9698 -112.236 -12.1225C-112.573 -12.2752 -112.854 -12.5078 -113.078 -12.8203C-113.298 -13.1328 -113.408 -13.527 -113.408 -14.0028V-22.142ZM-107.703 -8.93182C-107.916 -8.93182 -108.106 -8.94957 -108.273 -8.98509C-108.44 -9.01705 -108.555 -9.04901 -108.619 -9.08097L-108.299 -10.1889C-107.994 -10.1108 -107.724 -10.0824 -107.49 -10.1037C-107.255 -10.125 -107.048 -10.2298 -106.867 -10.418C-106.682 -10.6026 -106.513 -10.9027 -106.361 -11.3182L-106.126 -11.9574L-109.152 -20.1818H-107.788L-105.53 -13.6619H-105.444L-103.186 -20.1818H-101.822L-105.295 -10.8068C-105.451 -10.3842 -105.645 -10.0344 -105.876 -9.75746C-106.107 -9.47692 -106.375 -9.26918 -106.68 -9.13423C-106.982 -8.99929 -107.323 -8.93182 -107.703 -8.93182ZM-98.8006 -13.4915L-98.8858 -12.9162C-98.9462 -12.5114 -99.0385 -12.0781 -99.1628 -11.6165C-99.2836 -11.1548 -99.4096 -10.7198 -99.541 -10.3114C-99.6724 -9.90305 -99.7807 -9.57812 -99.8659 -9.33665H-100.825C-100.779 -9.56392 -100.718 -9.86399 -100.644 -10.2369C-100.569 -10.6097 -100.494 -11.027 -100.42 -11.4886C-100.342 -11.9467 -100.278 -12.4155 -100.228 -12.8949L-100.164 -13.4915H-98.8006ZM-88.9289 -11.8295C-89.6675 -11.8295 -90.3156 -12.0053 -90.8731 -12.3569C-91.4271 -12.7085 -91.8604 -13.2003 -92.1729 -13.8324C-92.4818 -14.4645 -92.6363 -15.2031 -92.6363 -16.0483C-92.6363 -16.9006 -92.4818 -17.6445 -92.1729 -18.2802C-91.8604 -18.9158 -91.4271 -19.4094 -90.8731 -19.761C-90.3156 -20.1126 -89.6675 -20.2884 -88.9289 -20.2884C-88.1903 -20.2884 -87.5439 -20.1126 -86.99 -19.761C-86.4324 -19.4094 -85.9992 -18.9158 -85.6903 -18.2802C-85.3778 -17.6445 -85.2215 -16.9006 -85.2215 -16.0483C-85.2215 -15.2031 -85.3778 -14.4645 -85.6903 -13.8324C-85.9992 -13.2003 -86.4324 -12.7085 -86.99 -12.3569C-87.5439 -12.0053 -88.1903 -11.8295 -88.9289 -11.8295ZM-88.9289 -12.9588C-88.3678 -12.9588 -87.9062 -13.1026 -87.5439 -13.3903C-87.1817 -13.6779 -86.9136 -14.0561 -86.7396 -14.5249C-86.5656 -14.9936 -86.4786 -15.5014 -86.4786 -16.0483C-86.4786 -16.5952 -86.5656 -17.1048 -86.7396 -17.5771C-86.9136 -18.0494 -87.1817 -18.4311 -87.5439 -18.7223C-87.9062 -19.0135 -88.3678 -19.1591 -88.9289 -19.1591C-89.49 -19.1591 -89.9516 -19.0135 -90.3138 -18.7223C-90.676 -18.4311 -90.9442 -18.0494 -91.1182 -17.5771C-91.2922 -17.1048 -91.3792 -16.5952 -91.3792 -16.0483C-91.3792 -15.5014 -91.2922 -14.9936 -91.1182 -14.5249C-90.9442 -14.0561 -90.676 -13.6779 -90.3138 -13.3903C-89.9516 -13.1026 -89.49 -12.9588 -88.9289 -12.9588ZM-82.0455 -16.9219V-12H-83.3026V-20.1818H-82.0881V-18.9034H-81.9815C-81.7898 -19.3189 -81.4986 -19.6527 -81.108 -19.9048C-80.7173 -20.1605 -80.2131 -20.2884 -79.5952 -20.2884C-79.0412 -20.2884 -78.5565 -20.1747 -78.141 -19.9474C-77.7255 -19.7237 -77.4023 -19.3828 -77.1715 -18.9247C-76.9407 -18.4702 -76.8253 -17.8949 -76.8253 -17.1989V-12H-78.0824V-17.1136C-78.0824 -17.7564 -78.2493 -18.2571 -78.5831 -18.6158C-78.9169 -18.978 -79.375 -19.1591 -79.9574 -19.1591C-80.3587 -19.1591 -80.7173 -19.0721 -81.0334 -18.8981C-81.3459 -18.7241 -81.5927 -18.4702 -81.7738 -18.1364C-81.9549 -17.8026 -82.0455 -17.3977 -82.0455 -16.9219ZM-69.8406 -17.2628V-16.0909H-74.6134V-17.2628H-69.8406ZM-64.5392 -11.8295C-65.2211 -11.8295 -65.823 -12.0018 -66.345 -12.3462C-66.867 -12.6942 -67.2754 -13.1843 -67.5701 -13.8164C-67.8649 -14.4521 -68.0123 -15.2031 -68.0123 -16.0696C-68.0123 -16.929 -67.8649 -17.6747 -67.5701 -18.3068C-67.2754 -18.9389 -66.8652 -19.4272 -66.3397 -19.7717C-65.8141 -20.1161 -65.2069 -20.2884 -64.5179 -20.2884C-63.9853 -20.2884 -63.5645 -20.1996 -63.2555 -20.022C-62.943 -19.848 -62.7051 -19.6491 -62.5417 -19.4254C-62.3748 -19.2053 -62.2452 -19.0241 -62.1529 -18.8821H-62.0463V-22.9091H-60.7892V-12H-62.0037V-13.2571H-62.1529C-62.2452 -13.108 -62.3766 -12.9197 -62.5471 -12.6925C-62.7175 -12.4688 -62.9608 -12.2681 -63.2768 -12.0906C-63.5929 -11.9165 -64.0137 -11.8295 -64.5392 -11.8295ZM-64.3688 -12.9588C-63.8645 -12.9588 -63.4384 -13.0902 -63.0904 -13.353C-62.7424 -13.6193 -62.4778 -13.9869 -62.2967 -14.4556C-62.1156 -14.9279 -62.025 -15.473 -62.025 -16.0909C-62.025 -16.7017 -62.1138 -17.2362 -62.2914 -17.6942C-62.4689 -18.1559 -62.7317 -18.5146 -63.0797 -18.7702C-63.4277 -19.0295 -63.8574 -19.1591 -64.3688 -19.1591C-64.9015 -19.1591 -65.3453 -19.0224 -65.7005 -18.7489C-66.052 -18.479 -66.3166 -18.1115 -66.4941 -17.6463C-66.6681 -17.1847 -66.7551 -16.6662 -66.7551 -16.0909C-66.7551 -15.5085 -66.6664 -14.9794 -66.4888 -14.5036C-66.3077 -14.0313 -66.0414 -13.6548 -65.6898 -13.3743C-65.3347 -13.0973 -64.8944 -12.9588 -64.3688 -12.9588ZM-54.8819 -11.8295C-55.6703 -11.8295 -56.3503 -12.0036 -56.9221 -12.3516C-57.4902 -12.7031 -57.9288 -13.1932 -58.2377 -13.8217C-58.5431 -14.4538 -58.6958 -15.1889 -58.6958 -16.027C-58.6958 -16.8651 -58.5431 -17.6037 -58.2377 -18.2429C-57.9288 -18.8857 -57.4991 -19.3864 -56.9487 -19.745C-56.3947 -20.1072 -55.7484 -20.2884 -55.0098 -20.2884C-54.5836 -20.2884 -54.1628 -20.2173 -53.7473 -20.0753C-53.3319 -19.9332 -52.9537 -19.7024 -52.6127 -19.3828C-52.2718 -19.0668 -52.0002 -18.6477 -51.7978 -18.1257C-51.5953 -17.6037 -51.4941 -16.9609 -51.4941 -16.1974V-15.6648H-57.801V-16.7514H-52.7725C-52.7725 -17.2131 -52.8649 -17.625 -53.0495 -17.9872C-53.2306 -18.3494 -53.4899 -18.6353 -53.8272 -18.8448C-54.161 -19.0543 -54.5552 -19.1591 -55.0098 -19.1591C-55.5105 -19.1591 -55.9437 -19.0348 -56.3095 -18.7862C-56.6717 -18.5412 -56.9505 -18.2216 -57.1458 -17.8274C-57.3411 -17.4332 -57.4387 -17.0107 -57.4387 -16.5597V-15.8352C-57.4387 -15.2173 -57.3322 -14.6935 -57.1191 -14.2638C-56.9025 -13.8377 -56.6025 -13.5128 -56.2189 -13.2891C-55.8354 -13.0689 -55.3897 -12.9588 -54.8819 -12.9588C-54.5517 -12.9588 -54.2534 -13.005 -53.987 -13.0973C-53.7172 -13.1932 -53.4846 -13.3352 -53.2892 -13.5234C-53.0939 -13.7152 -52.943 -13.9531 -52.8365 -14.2372L-51.622 -13.8963C-51.7498 -13.4844 -51.9647 -13.1222 -52.2665 -12.8097C-52.5684 -12.5007 -52.9412 -12.2592 -53.3851 -12.0852C-53.829 -11.9148 -54.3279 -11.8295 -54.8819 -11.8295ZM-49.5819 -12V-20.1818H-48.3674V-18.9034H-48.2608C-48.0904 -19.3402 -47.8152 -19.6793 -47.4352 -19.9208C-47.0552 -20.1658 -46.5989 -20.2884 -46.0662 -20.2884C-45.5265 -20.2884 -45.0772 -20.1658 -44.7186 -19.9208C-44.3564 -19.6793 -44.074 -19.3402 -43.8716 -18.9034H-43.7864C-43.5769 -19.326 -43.2626 -19.6616 -42.8436 -19.9102C-42.4245 -20.1623 -41.9221 -20.2884 -41.3361 -20.2884C-40.6046 -20.2884 -40.0062 -20.0593 -39.541 -19.6012C-39.0758 -19.1467 -38.8432 -18.4382 -38.8432 -17.4759V-12H-40.1003V-17.4759C-40.1003 -18.0795 -40.2654 -18.511 -40.5957 -18.7702C-40.926 -19.0295 -41.3148 -19.1591 -41.7623 -19.1591C-42.3375 -19.1591 -42.7832 -18.9851 -43.0993 -18.6371C-43.4153 -18.2926 -43.5733 -17.8558 -43.5733 -17.3267V-12H-44.8517V-17.6037C-44.8517 -18.0689 -45.0027 -18.4435 -45.3045 -18.7276C-45.6064 -19.0153 -45.9952 -19.1591 -46.4711 -19.1591C-46.7978 -19.1591 -47.1032 -19.0721 -47.3873 -18.8981C-47.6678 -18.7241 -47.8951 -18.4826 -48.0691 -18.1737C-48.2395 -17.8683 -48.3248 -17.5149 -48.3248 -17.1136V-12H-49.5819ZM-34.1371 -11.8082C-34.6555 -11.8082 -35.1261 -11.9059 -35.5487 -12.1012C-35.9712 -12.3001 -36.3068 -12.5859 -36.5554 -12.9588C-36.804 -13.3352 -36.9283 -13.7898 -36.9283 -14.3224C-36.9283 -14.7912 -36.8359 -15.1712 -36.6513 -15.4624C-36.4666 -15.7571 -36.2198 -15.9879 -35.9109 -16.1548C-35.6019 -16.3217 -35.261 -16.446 -34.8881 -16.5277C-34.5117 -16.6129 -34.1335 -16.6804 -33.7536 -16.7301C-33.2564 -16.794 -32.8533 -16.842 -32.5444 -16.8739C-32.2319 -16.9094 -32.0046 -16.968 -31.8626 -17.0497C-31.717 -17.1314 -31.6442 -17.2734 -31.6442 -17.4759V-17.5185C-31.6442 -18.044 -31.788 -18.4524 -32.0756 -18.7436C-32.3597 -19.0348 -32.7912 -19.1804 -33.37 -19.1804C-33.9702 -19.1804 -34.4407 -19.049 -34.7816 -18.7862C-35.1225 -18.5234 -35.3622 -18.2429 -35.5007 -17.9446L-36.6939 -18.3707C-36.4808 -18.8679 -36.1967 -19.255 -35.8416 -19.532C-35.483 -19.8125 -35.0923 -20.0078 -34.6697 -20.1179C-34.2436 -20.2315 -33.8246 -20.2884 -33.4126 -20.2884C-33.1499 -20.2884 -32.848 -20.2564 -32.5071 -20.1925C-32.1626 -20.1321 -31.8306 -20.006 -31.511 -19.8143C-31.1879 -19.6225 -30.9197 -19.3331 -30.7067 -18.946C-30.4936 -18.5589 -30.3871 -18.0405 -30.3871 -17.3906V-12H-31.6442V-13.108H-31.7081C-31.7933 -12.9304 -31.9354 -12.7404 -32.1342 -12.538C-32.3331 -12.3356 -32.5977 -12.1634 -32.9279 -12.0213C-33.2582 -11.8793 -33.6612 -11.8082 -34.1371 -11.8082ZM-33.9453 -12.9375C-33.4482 -12.9375 -33.0291 -13.0352 -32.6882 -13.2305C-32.3437 -13.4258 -32.0845 -13.6779 -31.9105 -13.9869C-31.733 -14.2958 -31.6442 -14.6207 -31.6442 -14.9616V-16.1122C-31.6974 -16.0483 -31.8146 -15.9897 -31.9957 -15.9364C-32.1733 -15.8867 -32.3793 -15.8423 -32.6136 -15.8033C-32.8445 -15.7678 -33.07 -15.7358 -33.2901 -15.7074C-33.5067 -15.6825 -33.6825 -15.6612 -33.8175 -15.6435C-34.1442 -15.6009 -34.4496 -15.5316 -34.7337 -15.4357C-35.0142 -15.3434 -35.2415 -15.2031 -35.4155 -15.0149C-35.5859 -14.8303 -35.6712 -14.5781 -35.6712 -14.2585C-35.6712 -13.8217 -35.5096 -13.4915 -35.1864 -13.2678C-34.8597 -13.0476 -34.446 -12.9375 -33.9453 -12.9375ZM-26.8355 -16.9219V-12H-28.0926V-20.1818H-26.8781V-18.9034H-26.7716C-26.5798 -19.3189 -26.2886 -19.6527 -25.898 -19.9048C-25.5074 -20.1605 -25.0031 -20.2884 -24.3852 -20.2884C-23.8312 -20.2884 -23.3465 -20.1747 -22.931 -19.9474C-22.5155 -19.7237 -22.1924 -19.3828 -21.9616 -18.9247C-21.7307 -18.4702 -21.6153 -17.8949 -21.6153 -17.1989V-12H-22.8724V-17.1136C-22.8724 -17.7564 -23.0393 -18.2571 -23.3731 -18.6158C-23.7069 -18.978 -24.165 -19.1591 -24.7474 -19.1591C-25.1487 -19.1591 -25.5074 -19.0721 -25.8234 -18.8981C-26.1359 -18.7241 -26.3827 -18.4702 -26.5638 -18.1364C-26.7449 -17.8026 -26.8355 -17.3977 -26.8355 -16.9219ZM-16.2287 -11.8295C-16.9105 -11.8295 -17.5124 -12.0018 -18.0344 -12.3462C-18.5565 -12.6942 -18.9648 -13.1843 -19.2596 -13.8164C-19.5543 -14.4521 -19.7017 -15.2031 -19.7017 -16.0696C-19.7017 -16.929 -19.5543 -17.6747 -19.2596 -18.3068C-18.9648 -18.9389 -18.5547 -19.4272 -18.0291 -19.7717C-17.5036 -20.1161 -16.8963 -20.2884 -16.2074 -20.2884C-15.6747 -20.2884 -15.2539 -20.1996 -14.945 -20.022C-14.6325 -19.848 -14.3945 -19.6491 -14.2312 -19.4254C-14.0643 -19.2053 -13.9347 -19.0241 -13.8423 -18.8821H-13.7358V-22.9091H-12.4787V-12H-13.6932V-13.2571H-13.8423C-13.9347 -13.108 -14.0661 -12.9197 -14.2365 -12.6925C-14.407 -12.4688 -14.6502 -12.2681 -14.9663 -12.0906C-15.2823 -11.9165 -15.7031 -11.8295 -16.2287 -11.8295ZM-16.0582 -12.9588C-15.554 -12.9588 -15.1278 -13.0902 -14.7798 -13.353C-14.4318 -13.6193 -14.1673 -13.9869 -13.9862 -14.4556C-13.805 -14.9279 -13.7145 -15.473 -13.7145 -16.0909C-13.7145 -16.7017 -13.8033 -17.2362 -13.9808 -17.6942C-14.1584 -18.1559 -14.4212 -18.5146 -14.7692 -18.7702C-15.1172 -19.0295 -15.5469 -19.1591 -16.0582 -19.1591C-16.5909 -19.1591 -17.0348 -19.0224 -17.3899 -18.7489C-17.7415 -18.479 -18.006 -18.1115 -18.1836 -17.6463C-18.3576 -17.1847 -18.4446 -16.6662 -18.4446 -16.0909C-18.4446 -15.5085 -18.3558 -14.9794 -18.1783 -14.5036C-17.9972 -14.0313 -17.7308 -13.6548 -17.3793 -13.3743C-17.0241 -13.0973 -16.5838 -12.9588 -16.0582 -12.9588ZM-2.69354 -11.8295C-3.37536 -11.8295 -3.97727 -12.0018 -4.49929 -12.3462C-5.02131 -12.6942 -5.42969 -13.1843 -5.72443 -13.8164C-6.01918 -14.4521 -6.16655 -15.2031 -6.16655 -16.0696C-6.16655 -16.929 -6.01918 -17.6747 -5.72443 -18.3068C-5.42969 -18.9389 -5.01953 -19.4272 -4.49396 -19.7717C-3.96839 -20.1161 -3.36115 -20.2884 -2.67223 -20.2884C-2.13956 -20.2884 -1.71875 -20.1996 -1.4098 -20.022C-1.0973 -19.848 -0.859375 -19.6491 -0.696022 -19.4254C-0.529119 -19.2053 -0.399503 -19.0241 -0.307173 -18.8821H-0.200639V-22.9091H1.05646V-12H-0.158025V-13.2571H-0.307173C-0.399503 -13.108 -0.530895 -12.9197 -0.701349 -12.6925C-0.871804 -12.4688 -1.11506 -12.2681 -1.43111 -12.0906C-1.74716 -11.9165 -2.16797 -11.8295 -2.69354 -11.8295ZM-2.52308 -12.9588C-2.01882 -12.9588 -1.59268 -13.0902 -1.24467 -13.353C-0.896662 -13.6193 -0.632102 -13.9869 -0.450994 -14.4556C-0.269886 -14.9279 -0.179332 -15.473 -0.179332 -16.0909C-0.179332 -16.7017 -0.268111 -17.2362 -0.445667 -17.6942C-0.623224 -18.1559 -0.886008 -18.5146 -1.23402 -18.7702C-1.58203 -19.0295 -2.01172 -19.1591 -2.52308 -19.1591C-3.05575 -19.1591 -3.49964 -19.0224 -3.85476 -18.7489C-4.20632 -18.479 -4.47088 -18.1115 -4.64844 -17.6463C-4.82244 -17.1847 -4.90945 -16.6662 -4.90945 -16.0909C-4.90945 -15.5085 -4.82067 -14.9794 -4.64311 -14.5036C-4.462 -14.0313 -4.19567 -13.6548 -3.8441 -13.3743C-3.48899 -13.0973 -3.04865 -12.9588 -2.52308 -12.9588ZM6.96378 -11.8295C6.17543 -11.8295 5.49538 -12.0036 4.92365 -12.3516C4.35547 -12.7031 3.9169 -13.1932 3.60795 -13.8217C3.30256 -14.4538 3.14986 -15.1889 3.14986 -16.027C3.14986 -16.8651 3.30256 -17.6037 3.60795 -18.2429C3.9169 -18.8857 4.34659 -19.3864 4.89702 -19.745C5.45099 -20.1072 6.0973 -20.2884 6.83594 -20.2884C7.26207 -20.2884 7.68288 -20.2173 8.09837 -20.0753C8.51385 -19.9332 8.89205 -19.7024 9.23295 -19.3828C9.57386 -19.0668 9.84553 -18.6477 10.0479 -18.1257C10.2504 -17.6037 10.3516 -16.9609 10.3516 -16.1974V-15.6648H4.04474V-16.7514H9.07315C9.07315 -17.2131 8.98082 -17.625 8.79617 -17.9872C8.61506 -18.3494 8.35582 -18.6353 8.01847 -18.8448C7.68466 -19.0543 7.29048 -19.1591 6.83594 -19.1591C6.33523 -19.1591 5.90199 -19.0348 5.53622 -18.7862C5.17401 -18.5412 4.89524 -18.2216 4.69993 -17.8274C4.50462 -17.4332 4.40696 -17.0107 4.40696 -16.5597V-15.8352C4.40696 -15.2173 4.51349 -14.6935 4.72656 -14.2638C4.94318 -13.8377 5.24325 -13.5128 5.62678 -13.2891C6.0103 -13.0689 6.45597 -12.9588 6.96378 -12.9588C7.29403 -12.9588 7.59233 -13.005 7.85867 -13.0973C8.12855 -13.1932 8.36115 -13.3352 8.55646 -13.5234C8.75178 -13.7152 8.9027 -13.9531 9.00923 -14.2372L10.2237 -13.8963C10.0959 -13.4844 9.88104 -13.1222 9.57919 -12.8097C9.27734 -12.5007 8.90447 -12.2592 8.46058 -12.0852C8.01669 -11.9148 7.51776 -11.8295 6.96378 -11.8295ZM12.2638 -12V-20.1818H13.4783V-18.9034H13.5849C13.7553 -19.3402 14.0305 -19.6793 14.4105 -19.9208C14.7905 -20.1658 15.2468 -20.2884 15.7795 -20.2884C16.3192 -20.2884 16.7685 -20.1658 17.1271 -19.9208C17.4893 -19.6793 17.7717 -19.3402 17.9741 -18.9034H18.0593C18.2688 -19.326 18.5831 -19.6616 19.0021 -19.9102C19.4212 -20.1623 19.9237 -20.2884 20.5096 -20.2884C21.2411 -20.2884 21.8395 -20.0593 22.3047 -19.6012C22.7699 -19.1467 23.0025 -18.4382 23.0025 -17.4759V-12H21.7454V-17.4759C21.7454 -18.0795 21.5803 -18.511 21.25 -18.7702C20.9197 -19.0295 20.5309 -19.1591 20.0835 -19.1591C19.5082 -19.1591 19.0625 -18.9851 18.7464 -18.6371C18.4304 -18.2926 18.2724 -17.8558 18.2724 -17.3267V-12H16.994V-17.6037C16.994 -18.0689 16.843 -18.4435 16.5412 -18.7276C16.2393 -19.0153 15.8505 -19.1591 15.3746 -19.1591C15.0479 -19.1591 14.7425 -19.0721 14.4585 -18.8981C14.1779 -18.7241 13.9506 -18.4826 13.7766 -18.1737C13.6062 -17.8683 13.521 -17.5149 13.521 -17.1136V-12H12.2638ZM28.6248 -11.8295C27.8862 -11.8295 27.2381 -12.0053 26.6806 -12.3569C26.1266 -12.7085 25.6934 -13.2003 25.3809 -13.8324C25.0719 -14.4645 24.9174 -15.2031 24.9174 -16.0483C24.9174 -16.9006 25.0719 -17.6445 25.3809 -18.2802C25.6934 -18.9158 26.1266 -19.4094 26.6806 -19.761C27.2381 -20.1126 27.8862 -20.2884 28.6248 -20.2884C29.3635 -20.2884 30.0098 -20.1126 30.5637 -19.761C31.1213 -19.4094 31.5545 -18.9158 31.8635 -18.2802C32.176 -17.6445 32.3322 -16.9006 32.3322 -16.0483C32.3322 -15.2031 32.176 -14.4645 31.8635 -13.8324C31.5545 -13.2003 31.1213 -12.7085 30.5637 -12.3569C30.0098 -12.0053 29.3635 -11.8295 28.6248 -11.8295ZM28.6248 -12.9588C29.1859 -12.9588 29.6475 -13.1026 30.0098 -13.3903C30.372 -13.6779 30.6401 -14.0561 30.8141 -14.5249C30.9881 -14.9936 31.0751 -15.5014 31.0751 -16.0483C31.0751 -16.5952 30.9881 -17.1048 30.8141 -17.5771C30.6401 -18.0494 30.372 -18.4311 30.0098 -18.7223C29.6475 -19.0135 29.1859 -19.1591 28.6248 -19.1591C28.0637 -19.1591 27.6021 -19.0135 27.2399 -18.7223C26.8777 -18.4311 26.6096 -18.0494 26.4355 -17.5771C26.2615 -17.1048 26.1745 -16.5952 26.1745 -16.0483C26.1745 -15.5014 26.2615 -14.9936 26.4355 -14.5249C26.6096 -14.0561 26.8777 -13.6779 27.2399 -13.3903C27.6021 -13.1026 28.0637 -12.9588 28.6248 -12.9588ZM40.0466 -18.3494L38.9173 -18.0298C38.8463 -18.218 38.7416 -18.4009 38.6031 -18.5785C38.4681 -18.7596 38.2835 -18.9087 38.0491 -19.0259C37.8147 -19.1431 37.5146 -19.2017 37.1489 -19.2017C36.6482 -19.2017 36.2309 -19.0863 35.8971 -18.8555C35.5669 -18.6282 35.4017 -18.3388 35.4017 -17.9872C35.4017 -17.6747 35.5154 -17.4279 35.7426 -17.2468C35.9699 -17.0657 36.325 -16.9148 36.808 -16.794L38.0225 -16.4957C38.754 -16.3182 39.2991 -16.0465 39.6578 -15.6808C40.0164 -15.3185 40.1958 -14.8516 40.1958 -14.2798C40.1958 -13.8111 40.0608 -13.392 39.7909 -13.0227C39.5246 -12.6534 39.1517 -12.3622 38.6723 -12.1491C38.1929 -11.9361 37.6354 -11.8295 36.9997 -11.8295C36.1652 -11.8295 35.4745 -12.0107 34.9276 -12.3729C34.3808 -12.7351 34.0345 -13.2642 33.8889 -13.9602L35.0821 -14.2585C35.1958 -13.8182 35.4106 -13.4879 35.7267 -13.2678C36.0463 -13.0476 36.4635 -12.9375 36.9784 -12.9375C37.5644 -12.9375 38.0296 -13.0618 38.374 -13.3104C38.722 -13.5625 38.896 -13.8643 38.896 -14.2159C38.896 -14.5 38.7966 -14.7379 38.5977 -14.9297C38.3989 -15.125 38.0935 -15.2706 37.6816 -15.3665L36.3179 -15.6861C35.5686 -15.8636 35.0182 -16.1388 34.6666 -16.5117C34.3186 -16.8881 34.1446 -17.3587 34.1446 -17.9233C34.1446 -18.3849 34.2742 -18.7933 34.5335 -19.1484C34.7963 -19.5036 35.1531 -19.7823 35.6041 -19.9847C36.0587 -20.1871 36.5736 -20.2884 37.1489 -20.2884C37.9585 -20.2884 38.5942 -20.1108 39.0558 -19.7557C39.521 -19.4006 39.8513 -18.9318 40.0466 -18.3494ZM43.9631 -13.4915L43.8778 -12.9162C43.8175 -12.5114 43.7251 -12.0781 43.6009 -11.6165C43.4801 -11.1548 43.354 -10.7198 43.2227 -10.3114C43.0913 -9.90305 42.983 -9.57812 42.8977 -9.33665H41.9389C41.9851 -9.56392 42.0455 -9.86399 42.12 -10.2369C42.1946 -10.6097 42.2692 -11.027 42.3438 -11.4886C42.4219 -11.9467 42.4858 -12.4155 42.5355 -12.8949L42.5994 -13.4915H43.9631ZM-467.592 3.09091V14H-468.849V3.09091H-467.592ZM-465.29 14V5.81818H-464.033V14H-465.29ZM-464.651 4.45455C-464.896 4.45455 -465.107 4.37109 -465.285 4.20419C-465.459 4.03729 -465.546 3.83665 -465.546 3.60227C-465.546 3.3679 -465.459 3.16726 -465.285 3.00035C-465.107 2.83345 -464.896 2.75 -464.651 2.75C-464.406 2.75 -464.196 2.83345 -464.022 3.00035C-463.845 3.16726 -463.756 3.3679 -463.756 3.60227C-463.756 3.83665 -463.845 4.03729 -464.022 4.20419C-464.196 4.37109 -464.406 4.45455 -464.651 4.45455ZM-455.04 5.81818L-458.066 14H-459.344L-462.369 5.81818H-461.006L-458.747 12.3381H-458.662L-456.404 5.81818H-455.04ZM-450.243 14.1705C-451.032 14.1705 -451.712 13.9964 -452.283 13.6484C-452.852 13.2969 -453.29 12.8068 -453.599 12.1783C-453.904 11.5462 -454.057 10.8111 -454.057 9.97301C-454.057 9.13494 -453.904 8.39631 -453.599 7.7571C-453.29 7.11435 -452.86 6.61364 -452.31 6.25497C-451.756 5.89276 -451.11 5.71165 -450.371 5.71165C-449.945 5.71165 -449.524 5.78267 -449.109 5.92472C-448.693 6.06676 -448.315 6.29759 -447.974 6.61719C-447.633 6.93324 -447.362 7.35227 -447.159 7.87429C-446.957 8.39631 -446.855 9.03906 -446.855 9.80256V10.3352H-453.162V9.24858H-448.134C-448.134 8.78693 -448.226 8.375 -448.411 8.01278C-448.592 7.65057 -448.851 7.3647 -449.189 7.15518C-449.522 6.94567 -449.917 6.84091 -450.371 6.84091C-450.872 6.84091 -451.305 6.9652 -451.671 7.21378C-452.033 7.45881 -452.312 7.77841 -452.507 8.17258C-452.702 8.56676 -452.8 8.98935 -452.8 9.44034V10.1648C-452.8 10.7827 -452.694 11.3065 -452.48 11.7362C-452.264 12.1623 -451.964 12.4872 -451.58 12.7109C-451.197 12.9311 -450.751 13.0412 -450.243 13.0412C-449.913 13.0412 -449.615 12.995 -449.348 12.9027C-449.078 12.8068 -448.846 12.6648 -448.651 12.4766C-448.455 12.2848 -448.304 12.0469 -448.198 11.7628L-446.983 12.1037C-447.111 12.5156 -447.326 12.8778 -447.628 13.1903C-447.93 13.4993 -448.303 13.7408 -448.746 13.9148C-449.19 14.0852 -449.689 14.1705 -450.243 14.1705ZM-438.871 14L-441.364 5.81818H-440.043L-438.274 12.0824H-438.189L-436.442 5.81818H-435.099L-433.374 12.0611H-433.288L-431.52 5.81818H-430.199L-432.692 14H-433.928L-435.717 7.71449H-435.845L-437.635 14H-438.871ZM-425.385 14.1705C-426.173 14.1705 -426.853 13.9964 -427.425 13.6484C-427.993 13.2969 -428.432 12.8068 -428.741 12.1783C-429.046 11.5462 -429.199 10.8111 -429.199 9.97301C-429.199 9.13494 -429.046 8.39631 -428.741 7.7571C-428.432 7.11435 -428.002 6.61364 -427.452 6.25497C-426.898 5.89276 -426.251 5.71165 -425.513 5.71165C-425.087 5.71165 -424.666 5.78267 -424.25 5.92472C-423.835 6.06676 -423.457 6.29759 -423.116 6.61719C-422.775 6.93324 -422.503 7.35227 -422.301 7.87429C-422.098 8.39631 -421.997 9.03906 -421.997 9.80256V10.3352H-428.304V9.24858H-423.275C-423.275 8.78693 -423.368 8.375 -423.552 8.01278C-423.734 7.65057 -423.993 7.3647 -424.33 7.15518C-424.664 6.94567 -425.058 6.84091 -425.513 6.84091C-426.013 6.84091 -426.447 6.9652 -426.812 7.21378C-427.175 7.45881 -427.453 7.77841 -427.649 8.17258C-427.844 8.56676 -427.942 8.98935 -427.942 9.44034V10.1648C-427.942 10.7827 -427.835 11.3065 -427.622 11.7362C-427.405 12.1623 -427.105 12.4872 -426.722 12.7109C-426.338 12.9311 -425.893 13.0412 -425.385 13.0412C-425.055 13.0412 -424.756 12.995 -424.49 12.9027C-424.22 12.8068 -423.987 12.6648 -423.792 12.4766C-423.597 12.2848 -423.446 12.0469 -423.339 11.7628L-422.125 12.1037C-422.253 12.5156 -422.468 12.8778 -422.769 13.1903C-423.071 13.4993 -423.444 13.7408 -423.888 13.9148C-424.332 14.0852 -424.831 14.1705 -425.385 14.1705ZM-419.914 14V3.09091H-418.657V7.1179H-418.551C-418.458 6.97585 -418.331 6.79474 -418.167 6.57457C-418 6.35085 -417.762 6.15199 -417.453 5.97798C-417.141 5.80043 -416.718 5.71165 -416.186 5.71165C-415.497 5.71165 -414.889 5.88388 -414.364 6.22834C-413.838 6.5728 -413.428 7.06108 -413.133 7.69318C-412.839 8.32528 -412.691 9.07102 -412.691 9.9304C-412.691 10.7969 -412.839 11.5479 -413.133 12.1836C-413.428 12.8157 -413.837 13.3058 -414.359 13.6538C-414.881 13.9982 -415.483 14.1705 -416.164 14.1705C-416.69 14.1705 -417.111 14.0835 -417.427 13.9094C-417.743 13.7319 -417.986 13.5312 -418.157 13.3075C-418.327 13.0803 -418.458 12.892 -418.551 12.7429H-418.7V14H-419.914ZM-418.679 9.90909C-418.679 10.527 -418.588 11.0721 -418.407 11.5444C-418.226 12.0131 -417.961 12.3807 -417.613 12.647C-417.265 12.9098 -416.839 13.0412 -416.335 13.0412C-415.809 13.0412 -415.371 12.9027 -415.019 12.6257C-414.664 12.3452 -414.398 11.9687 -414.22 11.4964C-414.039 11.0206 -413.948 10.4915 -413.948 9.90909C-413.948 9.33381 -414.037 8.81534 -414.215 8.35369C-414.389 7.88849 -414.653 7.52095 -415.008 7.25107C-415.36 6.97763 -415.802 6.84091 -416.335 6.84091C-416.846 6.84091 -417.276 6.97053 -417.624 7.22976C-417.972 7.48544 -418.235 7.84411 -418.412 8.30575C-418.59 8.76385 -418.679 9.2983 -418.679 9.90909ZM-410.768 14V5.81818H-409.511V14H-410.768ZM-410.129 4.45455C-410.374 4.45455 -410.585 4.37109 -410.763 4.20419C-410.937 4.03729 -411.024 3.83665 -411.024 3.60227C-411.024 3.3679 -410.937 3.16726 -410.763 3.00035C-410.585 2.83345 -410.374 2.75 -410.129 2.75C-409.884 2.75 -409.675 2.83345 -409.501 3.00035C-409.323 3.16726 -409.234 3.3679 -409.234 3.60227C-409.234 3.83665 -409.323 4.03729 -409.501 4.20419C-409.675 4.37109 -409.884 4.45455 -410.129 4.45455ZM-405.952 9.07812V14H-407.209V5.81818H-405.994V7.09659H-405.888C-405.696 6.68111 -405.405 6.3473 -405.014 6.09517C-404.624 5.83949 -404.119 5.71165 -403.501 5.71165C-402.947 5.71165 -402.463 5.82528 -402.047 6.05256C-401.632 6.27628 -401.309 6.61719 -401.078 7.07528C-400.847 7.52983 -400.732 8.10511 -400.732 8.80114V14H-401.989V8.88636C-401.989 8.24361 -402.156 7.7429 -402.489 7.38423C-402.823 7.02202 -403.281 6.84091 -403.864 6.84091C-404.265 6.84091 -404.624 6.92791 -404.94 7.10192C-405.252 7.27592 -405.499 7.52983 -405.68 7.86364C-405.861 8.19744 -405.952 8.60227 -405.952 9.07812ZM-396.027 14.1918C-396.545 14.1918 -397.016 14.0941 -397.438 13.8988C-397.861 13.6999 -398.196 13.4141 -398.445 13.0412C-398.694 12.6648 -398.818 12.2102 -398.818 11.6776C-398.818 11.2088 -398.726 10.8288 -398.541 10.5376C-398.356 10.2429 -398.109 10.0121 -397.801 9.84517C-397.492 9.67827 -397.151 9.55398 -396.778 9.4723C-396.401 9.38707 -396.023 9.3196 -395.643 9.26989C-395.146 9.20597 -394.743 9.15803 -394.434 9.12607C-394.122 9.09055 -393.894 9.03196 -393.752 8.95028C-393.607 8.86861 -393.534 8.72656 -393.534 8.52415V8.48153C-393.534 7.95597 -393.678 7.54759 -393.965 7.25639C-394.249 6.9652 -394.681 6.8196 -395.26 6.8196C-395.86 6.8196 -396.33 6.95099 -396.671 7.21378C-397.012 7.47656 -397.252 7.7571 -397.39 8.0554L-398.584 7.62926C-398.37 7.1321 -398.086 6.74503 -397.731 6.46804C-397.373 6.1875 -396.982 5.99219 -396.559 5.8821C-396.133 5.76847 -395.714 5.71165 -395.302 5.71165C-395.04 5.71165 -394.738 5.74361 -394.397 5.80753C-394.052 5.8679 -393.72 5.99396 -393.401 6.18572C-393.078 6.37749 -392.809 6.6669 -392.596 7.05398C-392.383 7.44105 -392.277 7.95952 -392.277 8.60938V14H-393.534V12.892H-393.598C-393.683 13.0696 -393.825 13.2596 -394.024 13.462C-394.223 13.6644 -394.487 13.8366 -394.818 13.9787C-395.148 14.1207 -395.551 14.1918 -396.027 14.1918ZM-395.835 13.0625C-395.338 13.0625 -394.919 12.9648 -394.578 12.7695C-394.233 12.5742 -393.974 12.3221 -393.8 12.0131C-393.623 11.7042 -393.534 11.3793 -393.534 11.0384V9.88778C-393.587 9.9517 -393.704 10.0103 -393.885 10.0636C-394.063 10.1133 -394.269 10.1577 -394.503 10.1967C-394.734 10.2322 -394.96 10.2642 -395.18 10.2926C-395.396 10.3175 -395.572 10.3388 -395.707 10.3565C-396.034 10.3991 -396.339 10.4684 -396.623 10.5643C-396.904 10.6566 -397.131 10.7969 -397.305 10.9851C-397.476 11.1697 -397.561 11.4219 -397.561 11.7415C-397.561 12.1783 -397.399 12.5085 -397.076 12.7322C-396.749 12.9524 -396.336 13.0625 -395.835 13.0625ZM-389.982 14V5.81818H-388.768V7.05398H-388.683C-388.533 6.64915 -388.263 6.32067 -387.873 6.06854C-387.482 5.81641 -387.042 5.69034 -386.552 5.69034C-386.46 5.69034 -386.344 5.69212 -386.206 5.69567C-386.067 5.69922 -385.962 5.70455 -385.891 5.71165V6.99006C-385.934 6.9794 -386.032 6.96342 -386.184 6.94212C-386.333 6.91726 -386.491 6.90483 -386.658 6.90483C-387.056 6.90483 -387.411 6.98828 -387.724 7.15518C-388.033 7.31854 -388.278 7.54581 -388.459 7.837C-388.636 8.12464 -388.725 8.45312 -388.725 8.82244V14H-389.982ZM-378.606 7.65057L-379.735 7.97017C-379.806 7.78196 -379.911 7.59908 -380.049 7.42152C-380.184 7.24041 -380.369 7.09126 -380.603 6.97408C-380.838 6.85689 -381.138 6.7983 -381.503 6.7983C-382.004 6.7983 -382.421 6.91371 -382.755 7.14453C-383.085 7.3718 -383.251 7.66122 -383.251 8.01278C-383.251 8.32528 -383.137 8.57209 -382.91 8.7532C-382.682 8.9343 -382.327 9.08523 -381.844 9.20597L-380.63 9.50426C-379.898 9.68182 -379.353 9.95348 -378.995 10.3192C-378.636 10.6815 -378.457 11.1484 -378.457 11.7202C-378.457 12.1889 -378.592 12.608 -378.861 12.9773C-379.128 13.3466 -379.501 13.6378 -379.98 13.8509C-380.459 14.0639 -381.017 14.1705 -381.653 14.1705C-382.487 14.1705 -383.178 13.9893 -383.725 13.6271C-384.272 13.2649 -384.618 12.7358 -384.763 12.0398L-383.57 11.7415C-383.457 12.1818 -383.242 12.5121 -382.926 12.7322C-382.606 12.9524 -382.189 13.0625 -381.674 13.0625C-381.088 13.0625 -380.623 12.9382 -380.278 12.6896C-379.93 12.4375 -379.756 12.1357 -379.756 11.7841C-379.756 11.5 -379.856 11.2621 -380.055 11.0703C-380.253 10.875 -380.559 10.7294 -380.971 10.6335L-382.334 10.3139C-383.084 10.1364 -383.634 9.86115 -383.986 9.48828C-384.334 9.11186 -384.508 8.64134 -384.508 8.0767C-384.508 7.61506 -384.378 7.20668 -384.119 6.85156C-383.856 6.49645 -383.499 6.21768 -383.048 6.01527C-382.594 5.81286 -382.079 5.71165 -381.503 5.71165C-380.694 5.71165 -380.058 5.8892 -379.597 6.24432C-379.131 6.59943 -378.801 7.06818 -378.606 7.65057ZM-374.689 12.5085L-374.775 13.0838C-374.835 13.4886 -374.927 13.9219 -375.051 14.3835C-375.172 14.8452 -375.298 15.2802 -375.43 15.6886C-375.561 16.0969 -375.669 16.4219 -375.755 16.6634H-376.713C-376.667 16.4361 -376.607 16.136 -376.532 15.7631C-376.458 15.3903 -376.383 14.973 -376.309 14.5114C-376.23 14.0533 -376.167 13.5845 -376.117 13.1051L-376.053 12.5085H-374.689ZM-365.734 14.1918C-366.252 14.1918 -366.723 14.0941 -367.145 13.8988C-367.568 13.6999 -367.903 13.4141 -368.152 13.0412C-368.401 12.6648 -368.525 12.2102 -368.525 11.6776C-368.525 11.2088 -368.433 10.8288 -368.248 10.5376C-368.063 10.2429 -367.816 10.0121 -367.508 9.84517C-367.199 9.67827 -366.858 9.55398 -366.485 9.4723C-366.108 9.38707 -365.73 9.3196 -365.35 9.26989C-364.853 9.20597 -364.45 9.15803 -364.141 9.12607C-363.829 9.09055 -363.601 9.03196 -363.459 8.95028C-363.314 8.86861 -363.241 8.72656 -363.241 8.52415V8.48153C-363.241 7.95597 -363.385 7.54759 -363.672 7.25639C-363.956 6.9652 -364.388 6.8196 -364.967 6.8196C-365.567 6.8196 -366.037 6.95099 -366.378 7.21378C-366.719 7.47656 -366.959 7.7571 -367.097 8.0554L-368.291 7.62926C-368.078 7.1321 -367.793 6.74503 -367.438 6.46804C-367.08 6.1875 -366.689 5.99219 -366.266 5.8821C-365.84 5.76847 -365.421 5.71165 -365.009 5.71165C-364.747 5.71165 -364.445 5.74361 -364.104 5.80753C-363.759 5.8679 -363.427 5.99396 -363.108 6.18572C-362.785 6.37749 -362.516 6.6669 -362.303 7.05398C-362.09 7.44105 -361.984 7.95952 -361.984 8.60938V14H-363.241V12.892H-363.305C-363.39 13.0696 -363.532 13.2596 -363.731 13.462C-363.93 13.6644 -364.194 13.8366 -364.525 13.9787C-364.855 14.1207 -365.258 14.1918 -365.734 14.1918ZM-365.542 13.0625C-365.045 13.0625 -364.626 12.9648 -364.285 12.7695C-363.94 12.5742 -363.681 12.3221 -363.507 12.0131C-363.33 11.7042 -363.241 11.3793 -363.241 11.0384V9.88778C-363.294 9.9517 -363.411 10.0103 -363.592 10.0636C-363.77 10.1133 -363.976 10.1577 -364.21 10.1967C-364.441 10.2322 -364.667 10.2642 -364.887 10.2926C-365.103 10.3175 -365.279 10.3388 -365.414 10.3565C-365.741 10.3991 -366.046 10.4684 -366.33 10.5643C-366.611 10.6566 -366.838 10.7969 -367.012 10.9851C-367.183 11.1697 -367.268 11.4219 -367.268 11.7415C-367.268 12.1783 -367.106 12.5085 -366.783 12.7322C-366.456 12.9524 -366.043 13.0625 -365.542 13.0625ZM-358.432 9.07812V14H-359.689V5.81818H-358.475V7.09659H-358.368C-358.176 6.68111 -357.885 6.3473 -357.495 6.09517C-357.104 5.83949 -356.6 5.71165 -355.982 5.71165C-355.428 5.71165 -354.943 5.82528 -354.528 6.05256C-354.112 6.27628 -353.789 6.61719 -353.558 7.07528C-353.327 7.52983 -353.212 8.10511 -353.212 8.80114V14H-354.469V8.88636C-354.469 8.24361 -354.636 7.7429 -354.97 7.38423C-355.304 7.02202 -355.762 6.84091 -356.344 6.84091C-356.745 6.84091 -357.104 6.92791 -357.42 7.10192C-357.733 7.27592 -357.979 7.52983 -358.161 7.86364C-358.342 8.19744 -358.432 8.60227 -358.432 9.07812ZM-347.825 14.1705C-348.507 14.1705 -349.109 13.9982 -349.631 13.6538C-350.153 13.3058 -350.562 12.8157 -350.856 12.1836C-351.151 11.5479 -351.298 10.7969 -351.298 9.9304C-351.298 9.07102 -351.151 8.32528 -350.856 7.69318C-350.562 7.06108 -350.151 6.5728 -349.626 6.22834C-349.1 5.88388 -348.493 5.71165 -347.804 5.71165C-347.271 5.71165 -346.851 5.80043 -346.542 5.97798C-346.229 6.15199 -345.991 6.35085 -345.828 6.57457C-345.661 6.79474 -345.531 6.97585 -345.439 7.1179H-345.332V3.09091H-344.075V14H-345.29V12.7429H-345.439C-345.531 12.892 -345.663 13.0803 -345.833 13.3075C-346.004 13.5312 -346.247 13.7319 -346.563 13.9094C-346.879 14.0835 -347.3 14.1705 -347.825 14.1705ZM-347.655 13.0412C-347.151 13.0412 -346.725 12.9098 -346.377 12.647C-346.028 12.3807 -345.764 12.0131 -345.583 11.5444C-345.402 11.0721 -345.311 10.527 -345.311 9.90909C-345.311 9.2983 -345.4 8.76385 -345.578 8.30575C-345.755 7.84411 -346.018 7.48544 -346.366 7.22976C-346.714 6.97053 -347.144 6.84091 -347.655 6.84091C-348.188 6.84091 -348.631 6.97763 -348.987 7.25107C-349.338 7.52095 -349.603 7.88849 -349.78 8.35369C-349.954 8.81534 -350.041 9.33381 -350.041 9.90909C-350.041 10.4915 -349.953 11.0206 -349.775 11.4964C-349.594 11.9687 -349.328 12.3452 -348.976 12.6257C-348.621 12.9027 -348.18 13.0412 -347.655 13.0412ZM-337.38 14V5.81818H-336.165V7.09659H-336.059C-335.888 6.6598 -335.613 6.32067 -335.233 6.07919C-334.853 5.83416 -334.397 5.71165 -333.864 5.71165C-333.324 5.71165 -332.875 5.83416 -332.516 6.07919C-332.154 6.32067 -331.872 6.6598 -331.669 7.09659H-331.584C-331.375 6.67401 -331.06 6.33842 -330.641 6.08984C-330.222 5.83771 -329.72 5.71165 -329.134 5.71165C-328.402 5.71165 -327.804 5.9407 -327.339 6.39879C-326.874 6.85334 -326.641 7.56179 -326.641 8.52415V14H-327.898V8.52415C-327.898 7.92045 -328.063 7.48899 -328.394 7.22976C-328.724 6.97053 -329.113 6.84091 -329.56 6.84091C-330.135 6.84091 -330.581 7.01491 -330.897 7.36293C-331.213 7.70739 -331.371 8.14418 -331.371 8.6733V14H-332.65V8.39631C-332.65 7.93111 -332.801 7.55646 -333.102 7.27237C-333.404 6.98473 -333.793 6.84091 -334.269 6.84091C-334.596 6.84091 -334.901 6.92791 -335.185 7.10192C-335.466 7.27592 -335.693 7.5174 -335.867 7.82635C-336.037 8.13175 -336.123 8.48509 -336.123 8.88636V14H-337.38ZM-321.019 14.1705C-321.757 14.1705 -322.405 13.9947 -322.963 13.6431C-323.517 13.2915 -323.95 12.7997 -324.263 12.1676C-324.572 11.5355 -324.726 10.7969 -324.726 9.9517C-324.726 9.09943 -324.572 8.35547 -324.263 7.71982C-323.95 7.08416 -323.517 6.59055 -322.963 6.23899C-322.405 5.88743 -321.757 5.71165 -321.019 5.71165C-320.28 5.71165 -319.634 5.88743 -319.08 6.23899C-318.522 6.59055 -318.089 7.08416 -317.78 7.71982C-317.468 8.35547 -317.311 9.09943 -317.311 9.9517C-317.311 10.7969 -317.468 11.5355 -317.78 12.1676C-318.089 12.7997 -318.522 13.2915 -319.08 13.6431C-319.634 13.9947 -320.28 14.1705 -321.019 14.1705ZM-321.019 13.0412C-320.458 13.0412 -319.996 12.8974 -319.634 12.6097C-319.272 12.3221 -319.003 11.9439 -318.829 11.4751C-318.655 11.0064 -318.568 10.4986 -318.568 9.9517C-318.568 9.40483 -318.655 8.89524 -318.829 8.42294C-319.003 7.95064 -319.272 7.56889 -319.634 7.2777C-319.996 6.98651 -320.458 6.84091 -321.019 6.84091C-321.58 6.84091 -322.041 6.98651 -322.404 7.2777C-322.766 7.56889 -323.034 7.95064 -323.208 8.42294C-323.382 8.89524 -323.469 9.40483 -323.469 9.9517C-323.469 10.4986 -323.382 11.0064 -323.208 11.4751C-323.034 11.9439 -322.766 12.3221 -322.404 12.6097C-322.041 12.8974 -321.58 13.0412 -321.019 13.0412ZM-315.392 14V5.81818H-314.178V7.05398H-314.093C-313.944 6.64915 -313.674 6.32067 -313.283 6.06854C-312.892 5.81641 -312.452 5.69034 -311.962 5.69034C-311.87 5.69034 -311.754 5.69212 -311.616 5.69567C-311.477 5.69922 -311.373 5.70455 -311.301 5.71165V6.99006C-311.344 6.9794 -311.442 6.96342 -311.594 6.94212C-311.744 6.91726 -311.902 6.90483 -312.069 6.90483C-312.466 6.90483 -312.821 6.98828 -313.134 7.15518C-313.443 7.31854 -313.688 7.54581 -313.869 7.837C-314.047 8.12464 -314.135 8.45312 -314.135 8.82244V14H-315.392ZM-306.63 14.1705C-307.418 14.1705 -308.098 13.9964 -308.67 13.6484C-309.238 13.2969 -309.677 12.8068 -309.986 12.1783C-310.291 11.5462 -310.444 10.8111 -310.444 9.97301C-310.444 9.13494 -310.291 8.39631 -309.986 7.7571C-309.677 7.11435 -309.247 6.61364 -308.697 6.25497C-308.143 5.89276 -307.496 5.71165 -306.758 5.71165C-306.332 5.71165 -305.911 5.78267 -305.495 5.92472C-305.08 6.06676 -304.702 6.29759 -304.361 6.61719C-304.02 6.93324 -303.748 7.35227 -303.546 7.87429C-303.343 8.39631 -303.242 9.03906 -303.242 9.80256V10.3352H-309.549V9.24858H-304.521C-304.521 8.78693 -304.613 8.375 -304.798 8.01278C-304.979 7.65057 -305.238 7.3647 -305.575 7.15518C-305.909 6.94567 -306.303 6.84091 -306.758 6.84091C-307.259 6.84091 -307.692 6.9652 -308.058 7.21378C-308.42 7.45881 -308.699 7.77841 -308.894 8.17258C-309.089 8.56676 -309.187 8.98935 -309.187 9.44034V10.1648C-309.187 10.7827 -309.08 11.3065 -308.867 11.7362C-308.651 12.1623 -308.35 12.4872 -307.967 12.7109C-307.583 12.9311 -307.138 13.0412 -306.63 13.0412C-306.3 13.0412 -306.001 12.995 -305.735 12.9027C-305.465 12.8068 -305.233 12.6648 -305.037 12.4766C-304.842 12.2848 -304.691 12.0469 -304.585 11.7628L-303.37 12.1037C-303.498 12.5156 -303.713 12.8778 -304.015 13.1903C-304.316 13.4993 -304.689 13.7408 -305.133 13.9148C-305.577 14.0852 -306.076 14.1705 -306.63 14.1705ZM-300.414 14.0852C-300.676 14.0852 -300.902 13.9911 -301.09 13.8029C-301.278 13.6147 -301.373 13.3892 -301.373 13.1264C-301.373 12.8636 -301.278 12.6381 -301.09 12.4499C-300.902 12.2617 -300.676 12.1676 -300.414 12.1676C-300.151 12.1676 -299.925 12.2617 -299.737 12.4499C-299.549 12.6381 -299.455 12.8636 -299.455 13.1264C-299.455 13.3004 -299.499 13.4602 -299.588 13.6058C-299.673 13.7514 -299.789 13.8686 -299.934 13.9574C-300.076 14.0426 -300.236 14.0852 -300.414 14.0852Z" fill="white"/>
</g>
</g>
<circle id="Ellipse 2" cx="83" cy="135" r="57" fill="#3E7FE1"/>
<circle id="Ellipse 1" cx="121" cy="86" r="31" fill="#F0755F"/>
<path id="Star 2" d="M80 0L87.3539 75.8244L160 83.5L87.3539 91.1756L80 167L72.6461 91.1756L0 83.5L72.6461 75.8244L80 0Z" fill="white"/>
</g>
<defs>
<clipPath id="clip0_1_1122">
<rect width="796" height="567" fill="white" transform="translate(-608 -314)"/>
</clipPath>
</defs>
</svg>
